<?xml version="1.0" standalone="no"?><!DOCTYPE svg PUBLIC "-//W3C//DTD SVG 1.1//EN" "http://www.w3.org/Graphics/SVG/1.1/DTD/svg11.dtd"><svg height="1024" node-id="1" sillyvg="true" template-height="1024" template-width="1024" version="1.1" viewBox="0 0 1024 1024" width="1024" xmlns="http://www.w3.org/2000/svg" xmlns:xlink="http://www.w3.org/1999/xlink"><defs node-id="65"></defs><path d="M 0.00 0.00 L 1024.00 0.00 L 1024.00 1024.00 L 0.00 1024.00 Z" fill="#efefee" fill-rule="nonzero" node-id="67" stroke="none" target-height="1024" target-width="1024" target-x="0" target-y="0"></path><path d="M 172.90 710.10 L 171.50 718.20 L 170.90 724.50 L 170.60 731.40 L 171.10 745.60 L 173.00 758.40 L 174.60 764.90 L 176.70 771.50 L 179.40 778.30 L 181.80 783.20 L 187.70 793.00 L 191.30 797.80 L 195.20 802.30 L 199.70 806.80 L 204.70 811.10 L 210.30 815.30 L 216.10 819.00 L 222.60 822.50 L 229.80 825.80 L 237.80 828.80 L 245.80 831.30 L 254.70 833.50 L 264.60 835.30 L 275.50 836.80 L 286.00 837.70 L 297.70 838.10 L 310.60 838.10 L 324.70 837.50 L 338.20 836.30 L 353.10 834.60 L 369.30 832.20 L 386.90 829.00 L 393.40 829.00 L 401.20 829.40 L 410.40 830.40 L 424.60 832.50 L 498.80 846.10 L 535.30 851.90 L 566.30 855.50 L 582.10 856.90 L 598.20 857.80 L 614.50 858.20 L 630.90 858.10 L 647.30 857.40 L 663.90 856.00 L 676.20 854.50 L 688.60 852.60 L 700.80 850.20 L 725.30 844.70 L 736.50 841.80 L 746.70 838.70 L 756.00 835.40 L 765.40 831.50 L 774.00 827.40 L 781.80 823.30 L 788.80 819.00 L 795.80 814.20 L 802.10 809.40 L 807.70 804.50 L 812.80 799.70 L 817.70 794.40 L 826.00 784.10 L 829.40 779.00 L 833.60 771.90 L 837.10 765.10 L 839.90 758.60 L 842.40 751.90 L 845.80 740.00 L 847.40 731.50 L 848.20 724.70 L 848.70 718.50 L 848.60 710.60 Z" fill="#dddddd" fill-rule="nonzero" node-id="69" stroke="none" target-height="148.10004" target-width="678.1" target-x="170.6" target-y="710.1"></path><path d="M 437.60 452.50 L 582.90 452.50 L 590.60 452.80 L 598.10 453.50 L 605.40 454.80 L 612.50 456.50 L 619.50 458.70 L 626.30 461.30 L 632.80 464.30 L 639.10 467.70 L 645.20 471.60 L 651.00 475.70 L 656.50 480.30 L 661.70 485.10 L 666.50 490.30 L 671.10 495.80 L 675.20 501.60 L 679.10 507.70 L 682.50 514.00 L 685.50 520.50 L 688.10 527.30 L 690.30 534.30 L 692.00 541.40 L 693.30 548.70 L 694.00 556.20 L 694.30 563.90 L 694.30 695.50 L 694.00 697.10 L 693.10 698.30 L 691.80 699.20 L 690.30 699.50 L 330.30 699.50 L 328.70 699.20 L 327.50 698.30 L 326.60 697.10 L 326.30 695.50 L 326.30 563.90 L 326.60 556.20 L 327.30 548.70 L 328.50 541.40 L 330.30 534.30 L 332.40 527.30 L 335.00 520.50 L 338.10 514.00 L 341.50 507.70 L 345.30 501.60 L 349.50 495.80 L 354.00 490.30 L 358.90 485.10 L 364.10 480.30 L 369.60 475.70 L 375.30 471.60 L 381.40 467.70 L 387.70 464.30 L 394.20 461.30 L 401.00 458.70 L 408.00 456.50 L 415.10 454.80 L 422.40 453.60 L 429.90 452.80 L 437.60 452.50 Z" fill="#ffdccd" fill-rule="nonzero" node-id="71" stroke="none" target-height="247" target-width="368" target-x="326.3" target-y="452.5"></path><path d="M 690.30 701.40 L 330.30 701.40 L 328.70 701.10 L 326.10 699.70 L 324.60 697.10 L 324.40 695.50 L 324.40 563.90 L 324.70 556.00 L 325.50 548.40 L 326.70 541.00 L 328.50 533.80 L 330.70 526.70 L 333.40 519.80 L 336.40 513.20 L 339.90 506.80 L 343.80 500.60 L 348.00 494.70 L 352.60 489.20 L 357.60 483.90 L 362.90 478.90 L 368.50 474.30 L 374.30 470.10 L 380.50 466.20 L 386.90 462.70 L 393.50 459.60 L 400.40 457.00 L 407.50 454.80 L 414.80 453.00 L 422.20 451.70 L 429.80 451.00 L 437.60 450.70 L 582.90 450.70 L 590.70 451.00 L 598.40 451.70 L 605.80 453.00 L 613.00 454.80 L 620.10 457.00 L 627.00 459.60 L 633.60 462.70 L 640.00 466.20 L 646.20 470.10 L 652.10 474.30 L 657.60 478.90 L 662.90 483.90 L 667.90 489.20 L 672.50 494.70 L 676.70 500.60 L 680.60 506.80 L 684.10 513.20 L 687.20 519.80 L 689.80 526.70 L 692.00 533.80 L 693.80 541.00 L 695.00 548.40 L 695.80 556.00 L 696.10 563.90 L 696.10 695.50 L 695.90 697.10 L 695.30 698.50 L 694.40 699.70 L 691.80 701.10 L 690.30 701.40 Z M 437.60 454.40 L 430.00 454.60 L 422.70 455.40 L 415.50 456.60 L 408.50 458.30 L 401.60 460.50 L 395.00 463.00 L 388.60 466.00 L 382.40 469.40 L 376.40 473.10 L 370.70 477.20 L 365.30 481.70 L 360.20 486.50 L 355.40 491.60 L 351.00 497.00 L 346.90 502.70 L 343.10 508.60 L 339.70 514.80 L 336.80 521.20 L 334.20 527.90 L 332.00 534.80 L 330.30 541.80 L 329.10 548.90 L 328.40 556.30 L 328.10 563.90 L 328.10 695.50 L 328.70 697.10 L 330.30 697.70 L 690.30 697.70 L 691.80 697.10 L 692.50 695.50 L 692.50 563.90 L 692.20 556.30 L 691.40 548.90 L 690.20 541.80 L 688.50 534.80 L 686.40 527.90 L 683.80 521.20 L 680.80 514.80 L 677.50 508.60 L 673.70 502.60 L 669.60 497.00 L 665.10 491.60 L 660.30 486.50 L 655.20 481.70 L 649.80 477.20 L 644.20 473.10 L 638.20 469.30 L 632.00 466.00 L 625.60 463.00 L 618.90 460.40 L 612.00 458.30 L 605.00 456.60 L 597.90 455.40 L 590.50 454.60 L 582.90 454.40 Z" fill="#141619" fill-rule="nonzero" node-id="73" stroke="none" target-height="250.70001" target-width="371.69998" target-x="324.4" target-y="450.7"></path><path d="M 572.30 452.30 L 534.70 452.30 L 532.60 452.00 L 530.90 451.40 L 529.40 450.30 L 527.00 447.30 L 526.10 445.40 L 524.40 439.10 L 523.90 433.10 L 496.70 433.10 L 496.10 439.00 L 494.20 445.30 L 492.70 448.00 L 490.90 450.20 L 489.40 451.30 L 487.80 452.00 L 485.90 452.30 L 440.20 452.50 L 431.40 453.10 L 422.70 454.30 L 414.10 455.80 L 405.40 457.80 L 420.50 468.50 L 433.60 478.30 L 444.80 487.30 L 455.80 496.70 L 465.10 505.20 L 472.90 512.90 L 480.50 520.80 L 491.70 534.20 L 496.40 540.70 L 502.90 551.10 L 506.50 558.20 L 508.60 563.40 L 510.00 568.10 L 510.80 573.40 L 512.10 566.90 L 513.80 561.40 L 516.20 555.40 L 520.10 547.50 L 526.90 536.20 L 531.70 529.40 L 536.70 522.90 L 542.90 515.70 L 550.30 507.90 L 557.90 500.40 L 567.00 492.30 L 577.50 483.70 L 588.40 475.50 L 600.80 466.80 L 615.10 457.60 L 606.60 455.70 L 598.10 454.20 L 589.60 453.10 L 581.00 452.50 L 572.30 452.30 Z" fill="#ffffff" fill-rule="nonzero" node-id="75" stroke="none" target-height="140.30002" target-width="209.69998" target-x="405.4" target-y="433.1"></path><path d="M 510.80 575.30 L 510.00 575.10 L 509.10 574.10 L 508.40 569.20 L 506.00 561.70 L 503.60 556.40 L 500.60 550.70 L 496.20 543.60 L 491.70 537.30 L 481.30 524.50 L 472.60 515.20 L 463.30 506.00 L 453.50 497.20 L 433.30 480.50 L 423.40 472.90 L 404.40 459.30 L 403.70 458.50 L 403.60 457.50 L 404.10 456.50 L 405.00 456.00 L 413.70 454.00 L 422.50 452.40 L 431.30 451.30 L 440.10 450.60 L 449.10 450.40 L 485.90 450.40 L 487.40 450.20 L 488.70 449.60 L 490.10 448.50 L 491.30 446.90 L 492.60 444.50 L 493.80 440.80 L 494.60 437.00 L 495.00 432.30 L 496.00 431.40 L 496.70 431.20 L 524.60 431.30 L 525.60 432.30 L 526.20 438.60 L 527.60 444.20 L 528.80 446.70 L 530.30 448.60 L 531.60 449.60 L 533.00 450.20 L 534.70 450.40 L 572.30 450.40 L 581.10 450.60 L 589.80 451.30 L 598.40 452.30 L 607.00 453.80 L 615.60 455.80 L 616.50 456.30 L 616.90 457.30 L 616.80 458.30 L 616.10 459.10 L 598.00 470.90 L 588.50 477.70 L 578.70 485.10 L 569.10 493.00 L 553.40 507.30 L 541.90 519.60 L 536.50 526.10 L 531.50 532.80 L 526.90 539.60 L 522.30 547.20 L 519.10 553.50 L 516.50 559.60 L 513.60 568.40 L 512.50 574.20 L 511.50 575.10 L 510.80 575.30 Z M 409.80 458.60 L 424.90 469.50 L 438.00 479.40 L 449.20 488.50 L 460.10 498.00 L 469.30 506.50 L 476.90 514.20 L 484.30 522.20 L 490.30 529.30 L 499.70 542.00 L 505.80 552.30 L 509.10 559.30 L 510.90 564.40 L 512.60 559.50 L 515.30 553.10 L 518.70 546.30 L 523.60 538.00 L 528.50 530.70 L 535.20 522.00 L 545.90 509.80 L 559.90 496.20 L 577.50 481.40 L 587.10 474.10 L 598.10 466.50 L 610.50 458.40 L 601.00 456.50 L 591.50 455.20 L 582.00 454.40 L 532.70 453.90 L 529.20 452.40 L 527.70 451.20 L 526.00 449.10 L 524.60 446.60 L 523.60 443.80 L 522.80 440.80 L 522.10 434.90 L 498.40 434.90 L 497.50 441.20 L 496.50 444.50 L 495.20 447.40 L 494.10 449.30 L 491.40 452.20 L 489.80 453.20 L 488.00 453.80 L 485.90 454.10 L 449.10 454.10 L 439.10 454.40 L 429.30 455.20 L 419.50 456.60 L 409.80 458.60 Z" fill="#141619" fill-rule="nonzero" node-id="77" stroke="none" target-height="144.09998" target-width="213.30002" target-x="403.6" target-y="431.2"></path><path d="M 510.30 571.40 L 448.70 452.30 L 454.80 456.30 L 459.90 459.10 L 465.70 461.90 L 478.50 466.60 L 491.00 469.70 L 497.70 470.70 L 505.00 471.30 L 512.90 471.60 L 520.30 471.40 L 527.00 470.80 L 533.20 469.80 L 544.70 466.70 L 556.40 462.00 L 561.70 459.20 L 566.30 456.40 L 571.80 452.30 Z" fill="#ffdccc" fill-rule="nonzero" node-id="79" stroke="none" target-height="119.10004" target-width="123.099976" target-x="448.7" target-y="452.3"></path><path d="M 510.30 573.20 L 509.30 573.00 L 508.70 572.20 L 447.10 453.10 L 446.90 452.50 L 447.20 451.30 L 448.10 450.50 L 449.30 450.50 L 456.00 454.80 L 466.60 460.20 L 479.00 464.80 L 491.10 467.80 L 497.60 468.80 L 504.60 469.50 L 512.20 469.70 L 521.20 469.50 L 527.60 468.80 L 533.50 467.80 L 544.50 464.90 L 555.60 460.30 L 560.70 457.60 L 565.20 454.90 L 571.10 450.50 L 572.40 450.50 L 573.40 451.30 L 573.60 452.50 L 573.40 453.10 L 511.90 572.20 L 511.20 573.00 L 510.30 573.20 Z M 453.60 457.80 L 510.30 567.40 L 566.60 458.40 L 560.40 462.00 L 554.10 465.10 L 547.60 467.80 L 540.90 469.90 L 534.00 471.60 L 527.10 472.70 L 520.00 473.30 L 512.10 473.40 L 498.40 472.60 L 492.30 471.80 L 480.80 469.20 L 468.70 465.20 L 462.80 462.60 L 453.60 457.80 Z" fill="#141619" fill-rule="nonzero" node-id="81" stroke="none" target-height="122.70001" target-width="126.69998" target-x="446.9" target-y="450.5"></path><path d="M 456.20 367.20 L 455.80 370.80 L 454.90 374.10 L 453.50 377.20 L 451.50 379.90 L 449.10 382.30 L 446.30 384.30 L 443.30 385.70 L 440.00 386.60 L 436.40 387.00 L 432.70 386.60 L 429.40 385.70 L 426.40 384.30 L 423.60 382.30 L 421.20 379.90 L 419.20 377.20 L 417.80 374.10 L 416.90 370.80 L 416.50 367.20 L 416.90 363.50 L 417.80 360.20 L 419.20 357.20 L 421.20 354.40 L 423.60 352.00 L 426.40 350.10 L 429.40 348.60 L 432.70 347.70 L 436.40 347.40 L 440.00 347.70 L 443.30 348.60 L 446.30 350.10 L 449.10 352.00 L 451.50 354.40 L 453.50 357.20 L 454.90 360.20 L 455.80 363.50 L 456.20 367.20 Z" fill="#ffffff" fill-rule="nonzero" node-id="83" stroke="none" target-height="39.600006" target-width="39.700012" target-x="416.5" target-y="347.4"></path><path d="M 436.40 388.80 L 433.40 388.60 L 427.90 387.10 L 425.40 385.90 L 422.40 383.70 L 419.80 381.10 L 417.70 378.10 L 416.40 375.60 L 414.90 370.20 L 414.70 367.20 L 414.90 364.20 L 416.40 358.70 L 417.70 356.20 L 419.80 353.20 L 422.40 350.60 L 425.40 348.50 L 430.60 346.30 L 433.40 345.70 L 436.40 345.50 L 442.10 346.30 L 447.30 348.50 L 450.30 350.60 L 452.90 353.20 L 455.00 356.20 L 456.30 358.70 L 457.80 364.20 L 458.00 367.20 L 457.80 370.20 L 456.30 375.60 L 455.00 378.10 L 452.90 381.10 L 450.30 383.70 L 447.30 385.80 L 444.80 387.10 L 439.30 388.60 L 436.40 388.80 Z M 436.40 349.20 L 433.10 349.50 L 430.10 350.30 L 427.30 351.60 L 424.70 353.40 L 422.60 355.60 L 420.80 358.10 L 419.50 360.90 L 418.70 363.90 L 418.40 367.20 L 418.70 370.50 L 419.50 373.50 L 420.80 376.30 L 422.60 378.80 L 424.70 380.90 L 427.30 382.70 L 430.10 384.10 L 433.10 384.90 L 436.40 385.20 L 439.60 384.90 L 442.60 384.10 L 445.40 382.70 L 448.00 380.90 L 450.10 378.80 L 451.90 376.30 L 453.20 373.50 L 454.00 370.50 L 454.40 367.20 L 454.00 363.90 L 453.20 360.90 L 451.90 358.10 L 450.10 355.60 L 448.00 353.40 L 445.40 351.60 L 442.60 350.30 L 439.60 349.50 L 436.40 349.20 Z" fill="#141619" fill-rule="nonzero" node-id="85" stroke="none" target-height="43.299988" target-width="43.299988" target-x="414.7" target-y="345.5"></path><path d="M 604.00 367.20 L 603.70 370.80 L 602.80 374.10 L 601.30 377.20 L 599.30 379.90 L 597.00 382.30 L 594.20 384.30 L 591.10 385.70 L 587.80 386.60 L 584.20 387.00 L 580.60 386.60 L 577.30 385.70 L 574.20 384.30 L 571.40 382.30 L 569.10 379.90 L 567.10 377.20 L 565.60 374.10 L 564.70 370.80 L 564.40 367.20 L 564.70 363.50 L 565.60 360.20 L 567.10 357.20 L 569.10 354.40 L 571.40 352.00 L 574.20 350.10 L 577.30 348.60 L 580.60 347.70 L 584.20 347.40 L 587.80 347.70 L 591.10 348.60 L 594.20 350.10 L 597.00 352.00 L 599.30 354.40 L 601.30 357.20 L 602.80 360.20 L 603.70 363.50 L 604.00 367.20 Z" fill="#ffffff" fill-rule="nonzero" node-id="87" stroke="none" target-height="39.600006" target-width="39.599976" target-x="564.4" target-y="347.4"></path><path d="M 584.20 388.80 L 581.20 388.60 L 575.80 387.10 L 573.30 385.90 L 570.20 383.70 L 567.60 381.10 L 565.50 378.10 L 564.20 375.60 L 562.80 370.20 L 562.50 367.20 L 562.80 364.20 L 564.20 358.70 L 565.50 356.20 L 567.60 353.20 L 570.20 350.60 L 573.30 348.50 L 578.40 346.30 L 581.20 345.70 L 584.20 345.50 L 590.00 346.30 L 595.10 348.50 L 598.20 350.60 L 600.70 353.20 L 602.90 356.20 L 604.10 358.70 L 605.60 364.20 L 605.80 367.20 L 605.60 370.20 L 604.10 375.60 L 602.90 378.10 L 600.70 381.10 L 598.10 383.70 L 595.10 385.80 L 592.60 387.10 L 587.20 388.60 L 584.20 388.80 Z M 584.20 349.20 L 580.90 349.50 L 577.90 350.30 L 575.10 351.60 L 572.60 353.40 L 570.40 355.60 L 568.60 358.10 L 567.30 360.90 L 566.50 363.90 L 566.20 367.20 L 566.50 370.50 L 567.30 373.50 L 568.60 376.30 L 570.40 378.80 L 572.60 380.90 L 575.10 382.70 L 577.90 384.10 L 580.90 384.90 L 584.20 385.20 L 587.50 384.90 L 590.50 384.10 L 593.30 382.70 L 595.80 380.90 L 597.90 378.80 L 599.70 376.30 L 601.10 373.50 L 601.90 370.50 L 602.20 367.20 L 601.90 363.90 L 601.10 360.90 L 599.70 358.10 L 597.90 355.60 L 595.80 353.40 L 593.30 351.60 L 590.50 350.30 L 587.50 349.50 L 584.20 349.20 Z" fill="#141619" fill-rule="nonzero" node-id="89" stroke="none" target-height="43.299988" target-width="43.299988" target-x="562.5" target-y="345.5"></path><path d="M 461.10 289.40 L 559.50 289.40 L 563.50 289.70 L 567.30 290.40 L 570.80 291.70 L 574.20 293.40 L 577.30 295.50 L 580.10 298.00 L 582.60 300.80 L 584.70 303.90 L 586.40 307.30 L 587.70 310.90 L 588.40 314.60 L 588.70 318.70 L 588.70 360.30 L 588.40 366.80 L 587.70 373.10 L 586.40 379.20 L 584.70 385.10 L 582.50 390.90 L 580.00 396.40 L 577.00 401.60 L 573.60 406.60 L 569.80 411.40 L 565.70 415.80 L 561.30 419.90 L 556.60 423.60 L 551.60 427.00 L 546.40 430.00 L 540.90 432.60 L 535.10 434.80 L 529.20 436.50 L 523.10 437.70 L 516.80 438.50 L 510.30 438.80 L 503.80 438.50 L 497.50 437.70 L 491.40 436.50 L 485.50 434.80 L 479.70 432.60 L 474.20 430.00 L 469.00 427.00 L 464.00 423.60 L 459.20 419.90 L 454.80 415.80 L 450.70 411.40 L 447.00 406.60 L 443.60 401.60 L 440.60 396.40 L 438.00 390.90 L 435.80 385.10 L 434.10 379.20 L 432.90 373.10 L 432.10 366.80 L 431.80 360.30 L 431.80 318.70 L 432.10 314.60 L 432.90 310.90 L 434.10 307.30 L 435.80 303.90 L 437.90 300.80 L 440.40 298.00 L 443.20 295.50 L 446.30 293.40 L 449.70 291.70 L 453.30 290.40 L 457.10 289.70 L 461.10 289.40 Z" fill="#ffffff" fill-rule="nonzero" node-id="91" stroke="none" target-height="149.4" target-width="156.90002" target-x="431.8" target-y="289.4"></path><path d="M 510.30 440.60 L 503.60 440.30 L 497.20 439.50 L 491.00 438.20 L 484.90 436.50 L 479.00 434.20 L 473.40 431.60 L 468.00 428.50 L 462.90 425.10 L 458.00 421.20 L 453.50 417.00 L 449.40 412.50 L 445.50 407.70 L 442.00 402.60 L 439.00 397.20 L 436.40 391.60 L 434.10 385.70 L 432.40 379.60 L 431.10 373.40 L 430.30 367.00 L 430.00 360.30 L 430.00 318.70 L 430.30 314.40 L 431.10 310.40 L 432.50 306.60 L 434.30 303.00 L 436.50 299.70 L 439.10 296.70 L 442.10 294.10 L 445.40 291.80 L 449.00 290.00 L 452.80 288.70 L 456.80 287.90 L 461.10 287.60 L 559.50 287.60 L 563.70 287.90 L 567.70 288.70 L 571.50 290.00 L 575.20 291.80 L 578.40 294.10 L 581.40 296.70 L 584.10 299.70 L 586.30 303.00 L 588.10 306.60 L 589.40 310.40 L 590.20 314.40 L 590.50 318.70 L 590.50 360.30 L 590.30 367.00 L 589.50 373.40 L 588.20 379.60 L 586.40 385.70 L 584.20 391.60 L 581.50 397.20 L 578.50 402.60 L 575.00 407.70 L 571.20 412.50 L 567.00 417.00 L 562.50 421.20 L 557.70 425.10 L 552.50 428.50 L 547.20 431.60 L 541.50 434.20 L 535.60 436.50 L 529.60 438.20 L 523.40 439.50 L 516.90 440.30 L 510.30 440.60 Z M 461.10 291.20 L 457.30 291.50 L 453.80 292.20 L 450.40 293.40 L 447.20 295.00 L 444.30 296.90 L 441.70 299.30 L 439.40 301.90 L 437.40 304.80 L 435.80 308.00 L 434.60 311.30 L 433.90 314.90 L 433.70 318.70 L 433.70 360.30 L 433.90 366.70 L 434.70 372.80 L 435.90 378.80 L 437.60 384.50 L 439.70 390.20 L 442.20 395.50 L 445.10 400.70 L 448.40 405.60 L 452.10 410.20 L 456.10 414.50 L 460.40 418.50 L 465.00 422.10 L 469.90 425.40 L 475.00 428.40 L 480.40 430.90 L 486.10 433.00 L 491.80 434.70 L 497.80 435.90 L 503.90 436.70 L 510.30 436.90 L 516.60 436.70 L 522.80 435.90 L 528.70 434.70 L 534.50 433.00 L 540.10 430.90 L 545.50 428.40 L 550.60 425.40 L 555.50 422.10 L 560.10 418.50 L 564.40 414.50 L 568.40 410.20 L 572.10 405.60 L 575.40 400.70 L 578.30 395.50 L 580.80 390.20 L 583.00 384.50 L 584.70 378.80 L 585.90 372.80 L 586.60 366.70 L 586.90 360.30 L 586.90 318.70 L 586.60 314.90 L 585.90 311.30 L 584.70 308.00 L 583.10 304.80 L 581.20 301.90 L 578.80 299.30 L 576.20 296.90 L 573.30 295.00 L 570.10 293.40 L 566.80 292.20 L 563.20 291.50 L 559.50 291.20 Z" fill="#141619" fill-rule="nonzero" node-id="93" stroke="none" target-height="153" target-width="160.5" target-x="430" target-y="287.6"></path><path d="M 510.30 411.90 L 508.10 411.70 L 506.10 411.00 L 504.20 410.00 L 502.60 408.70 L 505.10 406.10 L 506.90 407.40 L 508.80 408.10 L 510.90 408.20 L 513.00 407.70 L 514.90 406.60 L 516.30 405.00 L 517.20 403.10 L 517.50 401.00 L 521.20 401.00 L 521.00 403.00 L 519.70 406.50 L 517.30 409.30 L 515.80 410.40 L 512.30 411.70 L 510.30 411.90 Z" fill="#141619" fill-rule="nonzero" node-id="95" stroke="none" target-height="10.899994" target-width="18.600006" target-x="502.6" target-y="401"></path><path d="M 489.70 394.30 L 489.40 395.50 L 488.40 396.70 L 484.60 398.70 L 478.90 400.00 L 472.20 400.40 L 465.50 400.00 L 459.80 398.70 L 457.50 397.70 L 456.00 396.70 L 455.00 395.50 L 454.70 394.30 L 455.00 393.20 L 456.00 392.00 L 459.80 390.00 L 465.50 388.70 L 472.20 388.20 L 478.90 388.70 L 484.60 390.00 L 488.40 392.00 L 489.40 393.20 L 489.70 394.30 Z" fill="#f4c5b7" fill-rule="nonzero" node-id="97" stroke="none" target-height="12.199982" target-width="35" target-x="454.7" target-y="388.2"></path><path d="M 565.80 394.30 L 565.50 395.50 L 564.50 396.70 L 560.70 398.70 L 555.00 400.00 L 548.30 400.40 L 541.60 400.00 L 535.90 398.70 L 533.60 397.70 L 532.10 396.70 L 531.10 395.50 L 530.80 394.30 L 531.10 393.20 L 532.10 392.00 L 535.90 390.00 L 541.60 388.70 L 548.30 388.20 L 555.00 388.70 L 560.70 390.00 L 564.50 392.00 L 565.50 393.20 L 565.80 394.30 Z" fill="#f4c5b7" fill-rule="nonzero" node-id="99" stroke="none" target-height="12.199982" target-width="35" target-x="530.8" target-y="388.2"></path><path d="M 507.90 356.00 L 507.50 360.80 L 506.60 365.30 L 505.10 369.60 L 503.10 373.60 L 500.60 377.30 L 497.60 380.70 L 494.30 383.60 L 490.60 386.10 L 486.50 388.20 L 482.20 389.70 L 477.70 390.60 L 472.90 390.90 L 468.10 390.60 L 463.60 389.70 L 459.30 388.20 L 455.30 386.10 L 451.60 383.60 L 448.20 380.70 L 445.30 377.30 L 442.80 373.60 L 440.70 369.60 L 439.20 365.30 L 438.30 360.80 L 438.00 356.00 L 438.30 351.20 L 439.20 346.70 L 440.70 342.40 L 442.80 338.30 L 445.30 334.60 L 448.20 331.30 L 451.60 328.30 L 455.30 325.80 L 459.30 323.80 L 463.60 322.30 L 468.10 321.40 L 472.90 321.10 L 477.70 321.40 L 482.20 322.30 L 486.50 323.80 L 490.60 325.80 L 494.30 328.30 L 497.60 331.30 L 500.60 334.60 L 503.10 338.30 L 505.10 342.40 L 506.60 346.70 L 507.50 351.20 L 507.90 356.00 Z" fill="#ffffff" fill-rule="nonzero" node-id="101" stroke="none" target-height="69.79999" target-width="69.899994" target-x="438" target-y="321.1"></path><path d="M 472.90 392.80 L 468.00 392.40 L 463.30 391.50 L 458.80 389.90 L 454.50 387.80 L 450.60 385.20 L 447.00 382.00 L 443.80 378.50 L 441.20 374.50 L 439.00 370.10 L 437.40 365.40 L 436.50 360.70 L 436.20 355.90 L 436.50 351.10 L 437.40 346.50 L 438.90 342.00 L 441.00 337.70 L 443.70 333.70 L 446.90 330.00 L 450.70 326.70 L 454.70 324.10 L 458.90 322.00 L 463.50 320.50 L 468.10 319.60 L 472.80 319.20 L 477.60 319.50 L 482.30 320.50 L 487.00 322.00 L 491.40 324.20 L 495.40 326.90 L 499.00 330.10 L 502.10 333.70 L 504.70 337.60 L 506.90 341.80 L 508.40 346.40 L 509.30 351.10 L 509.70 356.00 L 508.90 363.50 L 506.80 370.30 L 504.60 374.60 L 502.00 378.40 L 498.90 382.00 L 495.40 385.10 L 491.50 387.70 L 487.20 389.90 L 480.40 392.00 L 472.90 392.80 Z M 472.90 322.90 L 468.50 323.20 L 464.20 324.00 L 460.20 325.40 L 456.30 327.30 L 452.80 329.70 L 449.60 332.50 L 446.70 335.70 L 444.30 339.30 L 442.30 343.30 L 440.90 347.50 L 440.10 351.80 L 439.80 356.10 L 440.10 360.30 L 440.90 364.50 L 442.30 368.60 L 444.20 372.40 L 446.60 376.00 L 449.50 379.40 L 452.80 382.30 L 456.40 384.70 L 460.30 386.60 L 464.40 388.00 L 468.50 388.80 L 472.80 389.10 L 477.10 388.80 L 481.30 388.00 L 485.60 386.60 L 489.50 384.60 L 493.10 382.20 L 496.40 379.30 L 499.20 376.10 L 501.50 372.60 L 503.40 368.70 L 504.80 364.70 L 505.70 360.40 L 506.00 356.00 L 505.70 351.50 L 504.80 347.20 L 503.40 343.10 L 501.50 339.30 L 499.10 335.80 L 496.30 332.60 L 493.10 329.80 L 489.60 327.40 L 485.80 325.50 L 481.70 324.10 L 477.50 323.20 L 472.90 322.90 Z" fill="#141619" fill-rule="nonzero" node-id="103" stroke="none" target-height="73.599976" target-width="73.5" target-x="436.2" target-y="319.2"></path><path d="M 582.60 356.00 L 582.20 360.80 L 581.30 365.30 L 579.80 369.60 L 577.80 373.60 L 575.30 377.30 L 572.30 380.70 L 569.00 383.60 L 565.30 386.10 L 561.20 388.20 L 556.90 389.70 L 552.40 390.60 L 547.60 390.90 L 542.80 390.60 L 538.30 389.70 L 534.00 388.20 L 530.00 386.10 L 526.30 383.60 L 522.90 380.70 L 520.00 377.30 L 517.50 373.60 L 515.40 369.60 L 513.90 365.30 L 513.00 360.80 L 512.70 356.00 L 513.00 351.20 L 513.90 346.70 L 515.40 342.40 L 517.50 338.30 L 520.00 334.60 L 522.90 331.30 L 526.30 328.30 L 530.00 325.80 L 534.00 323.80 L 538.30 322.30 L 542.80 321.40 L 547.60 321.10 L 552.40 321.40 L 556.90 322.30 L 561.20 323.80 L 565.30 325.80 L 569.00 328.30 L 572.30 331.30 L 575.30 334.60 L 577.80 338.30 L 579.80 342.40 L 581.30 346.70 L 582.20 351.20 L 582.60 356.00 Z" fill="#ffffff" fill-rule="nonzero" node-id="105" stroke="none" target-height="69.79999" target-width="69.89996" target-x="512.7" target-y="321.1"></path><path d="M 547.60 392.80 L 542.70 392.40 L 538.00 391.50 L 533.50 389.90 L 529.20 387.80 L 525.30 385.20 L 521.70 382.00 L 518.50 378.50 L 515.90 374.50 L 513.70 370.10 L 512.10 365.40 L 511.20 360.70 L 510.90 355.90 L 511.20 351.10 L 512.10 346.50 L 513.60 342.00 L 515.70 337.70 L 518.40 333.70 L 521.60 330.00 L 525.40 326.70 L 529.40 324.10 L 533.60 322.00 L 538.20 320.50 L 542.80 319.60 L 547.50 319.20 L 552.30 319.50 L 557.00 320.50 L 561.70 322.00 L 566.10 324.20 L 570.10 326.90 L 573.70 330.10 L 576.80 333.70 L 579.40 337.60 L 581.60 341.80 L 583.10 346.40 L 584.00 351.10 L 584.40 356.00 L 583.60 363.50 L 581.50 370.30 L 579.30 374.60 L 576.70 378.40 L 573.60 382.00 L 570.10 385.10 L 566.20 387.70 L 561.90 389.90 L 555.10 392.00 L 547.60 392.80 Z M 547.60 322.90 L 543.10 323.20 L 538.80 324.10 L 534.70 325.50 L 530.90 327.40 L 527.40 329.80 L 524.20 332.60 L 521.40 335.80 L 519.10 339.30 L 517.10 343.10 L 515.70 347.20 L 514.80 351.40 L 514.50 356.00 L 514.80 360.50 L 515.70 364.80 L 517.10 368.90 L 519.10 372.70 L 521.40 376.20 L 524.20 379.40 L 527.40 382.20 L 530.90 384.60 L 534.70 386.50 L 538.80 387.90 L 543.10 388.80 L 547.60 389.10 L 552.20 388.80 L 556.40 387.90 L 560.50 386.50 L 564.30 384.60 L 567.80 382.20 L 571.00 379.40 L 573.80 376.20 L 576.20 372.70 L 578.10 368.90 L 579.50 364.80 L 580.40 360.50 L 580.70 356.00 L 580.40 351.40 L 579.50 347.20 L 578.10 343.10 L 576.20 339.30 L 573.80 335.80 L 571.00 332.60 L 567.80 329.80 L 564.30 327.40 L 560.50 325.50 L 556.40 324.10 L 552.20 323.20 L 547.60 322.90 Z" fill="#141619" fill-rule="nonzero" node-id="107" stroke="none" target-height="73.599976" target-width="73.50003" target-x="510.9" target-y="319.2"></path><path d="M 447.70 323.00 L 451.30 326.00 L 454.10 327.90 L 457.10 329.60 L 460.80 331.00 L 466.00 332.10 L 468.80 332.10 L 471.60 331.70 L 474.40 330.70 L 477.40 329.10 L 480.10 327.10 L 482.80 324.10 L 485.70 320.10 L 488.10 315.80 L 490.50 310.30 L 492.90 303.20 L 494.20 307.50 L 495.70 311.20 L 497.40 314.40 L 499.40 317.10 L 501.70 319.70 L 506.80 323.60 L 509.50 325.10 L 513.50 326.60 L 517.50 327.50 L 521.70 328.00 L 525.90 328.10 L 534.20 327.00 L 542.00 324.60 L 548.80 321.10 L 553.90 317.10 L 555.90 314.80 L 557.20 312.50 L 557.90 310.30 L 559.80 313.60 L 562.10 316.80 L 565.00 319.80 L 568.20 322.40 L 571.60 324.70 L 575.30 326.70 L 579.20 328.20 L 583.20 329.30 L 587.20 329.80 L 590.20 329.80 L 596.00 328.80 L 598.80 327.80 L 601.70 326.10 L 604.40 324.10 L 606.90 321.70 L 609.10 319.00 L 610.90 316.10 L 612.30 312.90 L 613.30 309.60 L 613.70 306.30 L 613.60 303.00 L 612.30 298.20 L 609.40 293.50 L 607.40 291.50 L 605.00 289.50 L 602.00 287.70 L 598.30 285.90 L 597.30 278.40 L 595.20 271.20 L 593.70 267.80 L 591.70 264.60 L 589.40 261.70 L 586.60 259.00 L 583.30 256.60 L 579.60 254.60 L 575.30 253.00 L 570.30 251.80 L 565.10 251.10 L 559.10 251.00 L 552.00 251.40 L 549.30 247.40 L 546.40 243.90 L 543.30 240.90 L 540.00 238.40 L 536.50 236.20 L 532.80 234.40 L 529.10 233.10 L 525.30 232.20 L 521.40 231.80 L 517.50 231.70 L 513.50 232.10 L 509.50 232.90 L 505.70 234.10 L 501.90 235.70 L 498.20 237.70 L 494.50 240.20 L 491.10 243.00 L 487.90 246.20 L 484.80 249.90 L 481.90 254.20 L 473.60 253.00 L 466.50 253.30 L 461.90 254.20 L 457.80 255.60 L 453.90 257.40 L 450.30 259.70 L 443.70 264.90 L 439.20 269.30 L 427.80 282.60 L 423.80 284.30 L 420.30 286.40 L 417.30 288.80 L 414.60 291.60 L 412.40 294.60 L 410.60 297.80 L 409.10 301.20 L 408.00 304.60 L 406.80 311.60 L 407.10 318.10 L 408.60 323.90 L 409.80 326.20 L 411.50 328.60 L 413.70 330.80 L 416.30 332.70 L 419.20 334.30 L 425.50 336.50 L 428.80 337.10 L 432.00 337.10 L 435.10 336.80 L 438.10 335.90 L 440.80 334.50 L 443.20 332.60 L 444.70 330.80 L 446.00 328.70 L 447.00 326.10 L 447.70 323.00 Z" fill="#3a3e52" fill-rule="nonzero" node-id="109" stroke="none" target-height="105.40001" target-width="206.90002" target-x="406.8" target-y="231.7"></path><path d="M 431.00 339.00 L 425.00 338.30 L 422.10 337.50 L 416.50 335.00 L 411.80 331.50 L 408.20 327.20 L 407.10 324.90 L 405.50 319.50 L 405.00 315.10 L 405.10 310.40 L 405.90 305.60 L 407.20 300.90 L 408.60 297.50 L 412.40 291.40 L 417.40 286.30 L 420.20 284.20 L 426.80 281.00 L 437.10 268.90 L 441.00 264.90 L 445.30 261.10 L 451.60 256.70 L 458.80 253.30 L 462.70 252.10 L 466.90 251.40 L 471.20 251.10 L 475.90 251.30 L 481.10 252.10 L 484.40 247.50 L 488.00 243.50 L 491.80 240.00 L 496.00 236.90 L 500.30 234.40 L 504.80 232.40 L 509.60 230.90 L 514.30 230.10 L 519.20 229.80 L 523.30 230.10 L 527.20 230.70 L 531.00 231.70 L 534.60 233.20 L 538.20 235.00 L 542.30 237.70 L 546.20 241.00 L 549.70 244.90 L 553.00 249.40 L 559.90 249.10 L 566.10 249.30 L 571.60 250.10 L 576.40 251.40 L 580.70 253.10 L 584.60 255.20 L 588.00 257.80 L 590.80 260.50 L 593.20 263.50 L 595.30 266.80 L 597.00 270.60 L 598.40 274.80 L 599.40 279.40 L 600.00 284.60 L 603.60 286.50 L 606.70 288.50 L 609.30 290.70 L 611.40 293.00 L 613.10 295.70 L 614.40 298.50 L 615.20 301.60 L 615.60 304.80 L 615.40 308.10 L 614.70 311.30 L 613.60 314.60 L 612.10 317.60 L 610.20 320.50 L 608.00 323.20 L 605.40 325.60 L 602.60 327.70 L 599.60 329.40 L 595.90 330.70 L 592.10 331.50 L 588.20 331.60 L 584.30 331.20 L 580.50 330.40 L 576.60 329.10 L 569.40 325.40 L 563.10 320.40 L 560.50 317.50 L 558.20 314.50 L 556.40 317.00 L 554.00 319.50 L 550.80 321.90 L 547.40 324.00 L 543.60 325.90 L 539.30 327.50 L 534.90 328.70 L 530.40 329.50 L 525.70 329.90 L 520.90 329.80 L 516.50 329.20 L 512.50 328.20 L 508.80 326.70 L 505.40 324.90 L 502.20 322.50 L 499.40 319.90 L 496.90 316.80 L 494.70 313.20 L 492.80 309.20 L 490.50 314.80 L 488.20 319.40 L 485.70 323.30 L 483.20 326.50 L 480.60 329.00 L 477.90 330.90 L 475.10 332.40 L 472.30 333.40 L 467.30 334.00 L 461.60 333.10 L 455.40 330.70 L 448.80 326.40 L 447.70 329.40 L 446.10 332.10 L 443.90 334.40 L 441.40 336.30 L 438.60 337.70 L 435.50 338.50 L 431.00 339.00 Z M 471.80 254.80 L 467.30 255.10 L 463.10 255.80 L 459.30 257.00 L 455.60 258.70 L 449.00 262.90 L 444.50 266.60 L 440.40 270.80 L 429.20 283.80 L 422.60 287.10 L 417.60 291.00 L 414.90 294.30 L 412.50 298.00 L 410.70 302.20 L 409.40 306.40 L 408.70 310.60 L 408.60 314.70 L 409.60 321.10 L 411.40 325.30 L 413.00 327.50 L 415.00 329.50 L 417.40 331.30 L 422.90 333.90 L 428.90 335.30 L 431.90 335.30 L 434.80 335.00 L 439.30 333.30 L 442.10 331.10 L 443.40 329.50 L 445.30 325.50 L 445.90 322.70 L 446.30 321.80 L 447.10 321.30 L 448.10 321.20 L 449.00 321.70 L 453.70 325.40 L 456.00 326.90 L 461.60 329.40 L 464.70 330.10 L 469.10 330.20 L 471.40 329.80 L 474.10 328.90 L 476.70 327.40 L 479.20 325.30 L 481.70 322.60 L 484.10 319.10 L 486.50 314.70 L 488.90 309.30 L 491.10 302.70 L 491.80 301.70 L 492.90 301.40 L 494.40 302.20 L 495.80 306.70 L 498.70 313.00 L 500.30 315.40 L 502.90 318.40 L 505.70 320.70 L 508.50 322.50 L 514.60 325.00 L 521.90 326.20 L 525.60 326.20 L 530.40 325.80 L 535.50 324.70 L 540.40 323.10 L 545.00 321.10 L 547.90 319.50 L 552.50 316.00 L 554.30 314.00 L 555.50 312.00 L 556.60 309.00 L 558.20 308.50 L 559.20 309.00 L 561.70 313.20 L 564.20 316.50 L 567.20 319.40 L 570.40 321.90 L 573.80 323.90 L 577.40 325.60 L 581.10 326.80 L 584.80 327.60 L 588.30 327.90 L 591.90 327.70 L 595.10 327.10 L 598.10 326.10 L 600.70 324.60 L 603.10 322.90 L 607.30 318.40 L 610.30 313.20 L 611.20 310.40 L 611.80 307.70 L 612.00 304.90 L 611.70 302.20 L 610.80 299.10 L 608.40 295.10 L 604.30 291.20 L 596.80 286.90 L 595.10 276.50 L 593.90 272.50 L 592.30 269.00 L 590.40 265.80 L 588.20 263.00 L 585.70 260.50 L 582.50 258.20 L 578.90 256.30 L 574.80 254.70 L 570.20 253.60 L 565.00 252.90 L 551.30 253.00 L 545.10 245.10 L 542.00 242.20 L 538.60 239.60 L 535.10 237.40 L 531.30 235.80 L 527.40 234.50 L 523.40 233.80 L 519.20 233.50 L 514.40 233.80 L 510.00 234.60 L 505.60 236.10 L 501.40 238.00 L 497.30 240.50 L 493.40 243.50 L 489.90 246.90 L 486.60 250.70 L 483.50 255.10 L 482.60 255.80 L 471.80 254.70 Z" fill="#141619" fill-rule="nonzero" node-id="111" stroke="none" target-height="109.2" target-width="210.59998" target-x="405" target-y="229.8"></path><path d="M 556.80 358.40 L 556.50 360.10 L 555.90 361.50 L 555.00 362.70 L 553.70 363.70 L 552.30 364.30 L 550.70 364.50 L 549.00 364.30 L 547.60 363.70 L 545.40 361.50 L 544.80 360.10 L 544.60 358.40 L 544.80 356.70 L 545.40 355.30 L 547.60 353.10 L 549.00 352.50 L 550.70 352.30 L 552.30 352.50 L 553.70 353.10 L 555.00 354.10 L 555.90 355.30 L 556.50 356.70 L 556.80 358.40 Z" fill="#141619" fill-rule="nonzero" node-id="113" stroke="none" target-height="12.200012" target-width="12.200012" target-x="544.6" target-y="352.3"></path><path d="M 478.50 358.40 L 478.30 360.00 L 477.70 361.40 L 476.70 362.70 L 475.40 363.70 L 474.00 364.30 L 472.40 364.50 L 470.80 364.30 L 469.30 363.70 L 468.10 362.70 L 467.10 361.40 L 466.50 360.00 L 466.30 358.40 L 466.50 356.80 L 467.10 355.40 L 468.10 354.10 L 469.30 353.10 L 470.80 352.50 L 472.40 352.30 L 474.00 352.50 L 475.40 353.10 L 476.70 354.10 L 477.70 355.40 L 478.30 356.80 L 478.50 358.40 Z" fill="#141619" fill-rule="nonzero" node-id="115" stroke="none" target-height="12.200012" target-width="12.200012" target-x="466.3" target-y="352.3"></path><path d="M 840.70 663.70 L 732.20 643.60 L 727.10 642.40 L 722.40 640.70 L 717.90 638.40 L 713.70 635.60 L 709.90 632.50 L 706.50 628.90 L 703.50 624.90 L 701.00 620.70 L 699.00 616.10 L 697.50 611.40 L 696.50 606.40 L 696.10 601.20 L 695.70 572.20 L 695.90 566.80 L 696.80 561.80 L 698.20 556.90 L 700.20 552.20 L 702.60 547.80 L 705.60 543.70 L 709.00 540.00 L 712.80 536.80 L 717.00 533.90 L 721.50 531.60 L 726.40 529.70 L 731.50 528.50 L 749.60 526.50 L 768.60 523.70 L 790.90 519.60 L 802.50 516.90 L 821.60 511.40 L 835.60 506.10 L 842.20 503.00 L 848.00 499.80 L 853.10 496.50" fill="#ffffff" fill-rule="nonzero" node-id="117" stroke="none" target-height="167.20001" target-width="157.39996" target-x="695.7" target-y="496.5"></path><path d="M 840.70 665.60 L 731.90 645.40 L 726.60 644.10 L 721.60 642.30 L 717.00 640.00 L 712.60 637.10 L 708.70 633.80 L 705.10 630.00 L 702.00 625.90 L 699.40 621.50 L 697.30 616.80 L 695.70 611.80 L 694.70 606.60 L 694.30 601.20 L 694.00 568.00 L 694.40 564.00 L 696.40 556.20 L 698.50 551.30 L 701.10 546.80 L 704.20 542.60 L 707.70 538.70 L 711.70 535.30 L 716.10 532.30 L 719.60 530.40 L 727.10 527.60 L 731.20 526.70 L 749.80 524.60 L 768.70 521.80 L 790.80 517.70 L 802.20 515.00 L 813.60 511.90 L 828.20 507.10 L 841.30 501.40 L 847.00 498.30 L 852.00 495.00 L 853.40 494.70 L 854.60 495.40 L 854.90 496.10 L 854.60 497.50 L 854.10 498.00 L 844.90 503.70 L 832.40 509.50 L 815.50 515.30 L 805.00 518.20 L 793.10 521.00 L 779.80 523.70 L 762.00 526.70 L 747.00 528.70 L 731.80 530.30 L 726.80 531.60 L 722.20 533.30 L 717.90 535.60 L 713.90 538.30 L 710.20 541.40 L 707.00 545.00 L 704.10 548.90 L 701.80 553.10 L 699.90 557.60 L 698.50 562.20 L 697.70 567.10 L 697.50 572.20 L 698.00 601.20 L 698.30 606.20 L 699.30 610.90 L 700.70 615.50 L 702.70 619.90 L 705.10 623.90 L 708.00 627.70 L 711.20 631.10 L 714.90 634.20 L 718.90 636.80 L 723.10 639.00 L 727.70 640.70 L 732.60 641.80 L 841.00 661.90 L 842.10 662.60 L 842.50 663.90 L 841.90 665.10 L 840.70 665.60 Z" fill="#141619" fill-rule="nonzero" node-id="119" stroke="none" target-height="170.89996" target-width="160.90002" target-x="694" target-y="494.7"></path><path d="M 179.90 663.70 L 288.30 643.60 L 293.40 642.40 L 298.20 640.70 L 302.60 638.40 L 306.80 635.60 L 310.60 632.50 L 314.00 628.90 L 317.00 624.90 L 319.50 620.70 L 321.60 616.10 L 323.10 611.40 L 324.00 606.40 L 324.40 601.20 L 324.90 572.20 L 324.60 566.80 L 323.80 561.80 L 322.30 556.90 L 320.40 552.20 L 317.90 547.80 L 314.90 543.80 L 311.50 540.10 L 307.70 536.80 L 303.50 533.90 L 299.00 531.60 L 294.20 529.80 L 289.00 528.50 L 270.90 526.50 L 251.90 523.80 L 229.70 519.60 L 218.10 516.90 L 198.90 511.40 L 185.00 506.10 L 178.40 503.10 L 172.60 499.80 L 167.50 496.50" fill="#ffffff" fill-rule="nonzero" node-id="121" stroke="none" target-height="167.20001" target-width="157.4" target-x="167.5" target-y="496.5"></path><path d="M 179.90 665.60 L 178.60 665.10 L 178.00 663.90 L 178.40 662.60 L 179.50 661.90 L 288.00 641.80 L 292.90 640.60 L 297.40 639.00 L 301.70 636.80 L 305.70 634.20 L 309.30 631.10 L 312.60 627.70 L 315.50 623.90 L 317.90 619.90 L 319.90 615.50 L 321.30 610.90 L 322.20 606.10 L 322.60 601.10 L 323.10 572.20 L 322.80 567.10 L 322.00 562.20 L 320.70 557.50 L 318.80 553.00 L 316.40 548.90 L 313.60 545.00 L 310.30 541.40 L 306.70 538.30 L 302.70 535.50 L 298.40 533.30 L 293.70 531.50 L 288.80 530.30 L 273.50 528.70 L 258.60 526.60 L 240.80 523.70 L 227.40 521.00 L 215.60 518.20 L 205.10 515.30 L 188.20 509.50 L 175.70 503.70 L 166.40 498.00 L 165.90 497.40 L 165.70 496.10 L 166.00 495.40 L 167.20 494.70 L 168.60 495.00 L 173.60 498.20 L 179.20 501.40 L 192.40 507.10 L 206.90 511.90 L 218.30 515.00 L 229.80 517.70 L 251.90 521.90 L 270.70 524.60 L 289.30 526.70 L 293.40 527.60 L 301.00 530.40 L 304.50 532.30 L 308.90 535.30 L 312.80 538.70 L 316.40 542.60 L 319.50 546.80 L 322.00 551.40 L 324.10 556.30 L 326.10 564.00 L 326.60 568.00 L 326.30 601.20 L 325.90 606.70 L 324.90 611.80 L 323.30 616.80 L 321.10 621.60 L 318.50 626.00 L 315.40 630.10 L 311.80 633.80 L 307.90 637.10 L 303.50 640.00 L 298.90 642.30 L 293.90 644.20 L 288.60 645.50 L 180.20 665.50 Z" fill="#141619" fill-rule="nonzero" node-id="123" stroke="none" target-height="170.89996" target-width="160.90001" target-x="165.7" target-y="494.7"></path><path d="M 329.50 524.60 L 691.00 524.60 L 695.40 524.90 L 699.60 525.70 L 703.50 527.10 L 707.20 529.00 L 710.60 531.30 L 713.70 534.00 L 716.40 537.10 L 718.70 540.40 L 720.50 544.20 L 721.90 548.10 L 722.70 552.20 L 723.00 556.60 L 723.00 760.30 L 722.80 764.60 L 721.90 768.60 L 720.60 772.60 L 718.80 776.30 L 716.50 779.80 L 713.70 783.00 L 710.50 785.80 L 707.00 788.10 L 703.30 789.90 L 699.30 791.30 L 695.20 792.10 L 691.00 792.40 L 329.50 792.40 L 325.30 792.10 L 321.20 791.30 L 317.30 789.90 L 313.50 788.10 L 310.10 785.80 L 306.90 783.00 L 304.10 779.80 L 301.80 776.30 L 299.90 772.60 L 298.60 768.60 L 297.80 764.60 L 297.50 760.30 L 297.50 556.60 L 297.80 552.20 L 298.60 548.10 L 300.00 544.20 L 301.90 540.40 L 304.20 537.10 L 306.90 534.00 L 310.00 531.30 L 313.30 529.00 L 317.10 527.10 L 321.00 525.70 L 325.10 524.90 L 329.50 524.60 Z" fill="#5779eb" fill-rule="nonzero" node-id="125" stroke="none" target-height="267.80005" target-width="425.5" target-x="297.5" target-y="524.6"></path><path d="M 691.00 799.70 L 329.50 799.70 L 325.40 799.50 L 317.80 797.90 L 310.80 794.90 L 304.50 790.70 L 299.20 785.30 L 295.00 779.10 L 292.00 772.00 L 290.40 764.40 L 290.20 760.30 L 290.20 556.60 L 290.40 552.50 L 291.00 548.60 L 293.30 541.30 L 296.90 534.60 L 301.70 528.80 L 307.50 524.00 L 314.20 520.40 L 321.50 518.10 L 325.40 517.50 L 329.50 517.30 L 691.00 517.30 L 695.10 517.50 L 702.70 519.00 L 709.80 522.00 L 716.00 526.30 L 721.40 531.60 L 725.60 537.80 L 728.60 544.90 L 730.10 552.50 L 730.40 556.60 L 730.40 760.30 L 730.10 764.40 L 729.50 768.30 L 728.60 772.00 L 725.60 779.10 L 721.40 785.30 L 716.00 790.70 L 709.80 794.90 L 702.70 797.90 L 695.10 799.50 L 691.00 799.70 Z M 329.50 531.90 L 326.10 532.10 L 322.90 532.80 L 319.90 533.90 L 317.00 535.30 L 314.40 537.10 L 312.10 539.10 L 310.00 541.50 L 308.20 544.10 L 306.80 547.00 L 305.70 550.00 L 305.00 553.20 L 304.80 556.60 L 304.80 760.30 L 305.00 763.70 L 305.70 766.90 L 306.80 769.90 L 308.20 772.80 L 310.00 775.40 L 312.10 777.80 L 314.40 779.90 L 317.00 781.70 L 319.90 783.10 L 322.90 784.20 L 326.10 784.80 L 329.50 785.10 L 691.00 785.10 L 694.40 784.80 L 697.60 784.20 L 700.60 783.10 L 703.50 781.70 L 706.10 779.90 L 710.60 775.40 L 712.30 772.80 L 713.80 769.90 L 714.80 766.90 L 715.50 763.70 L 715.70 760.30 L 715.70 556.60 L 715.50 553.20 L 714.80 550.00 L 713.80 547.00 L 712.30 544.10 L 710.60 541.50 L 708.50 539.10 L 706.10 537.10 L 703.50 535.30 L 700.60 533.90 L 697.60 532.80 L 694.40 532.10 L 691.00 531.90 Z" fill="#3e6fcd" fill-rule="nonzero" node-id="127" stroke="none" target-height="282.40002" target-width="440.2" target-x="290.2" target-y="517.3"></path><path d="M 424.10 668.60 L 427.10 668.30 L 430.20 667.60 L 433.40 666.30 L 439.60 662.60 L 445.50 657.10 L 450.70 650.30 L 453.00 646.40 L 454.90 642.30 L 456.40 637.90 L 457.60 633.30 L 458.30 628.60 L 458.60 623.50 L 457.90 613.80 L 455.90 606.30 L 454.50 603.30 L 452.70 600.30 L 450.70 597.70 L 448.30 595.50 L 445.70 593.60 L 442.80 592.00 L 438.90 590.50 L 434.60 589.40 L 429.60 588.70 L 424.10 588.50 L 418.50 588.70 L 413.60 589.30 L 409.20 590.40 L 405.30 591.90 L 402.30 593.50 L 399.60 595.40 L 397.20 597.60 L 395.10 600.20 L 393.20 603.10 L 391.80 606.20 L 390.70 609.70 L 389.80 613.70 L 389.20 618.30 L 389.00 623.50 L 389.30 628.50 L 390.00 633.30 L 391.20 637.80 L 392.80 642.20 L 394.80 646.40 L 397.10 650.20 L 402.40 657.10 L 408.40 662.50 L 414.70 666.30 L 418.00 667.60 L 421.10 668.30 L 424.10 668.60 Z M 492.30 701.40 L 489.60 694.70 L 488.10 691.80 L 486.70 689.90 L 485.30 688.70 L 475.90 682.70 L 467.80 678.10 L 451.80 669.80 L 449.30 669.90 L 447.10 671.20 L 435.80 691.80 L 435.00 692.70 L 433.90 693.20 L 432.70 693.30 L 431.50 693.00 L 430.60 692.20 L 430.00 691.10 L 429.80 690.00 L 430.10 688.80 L 432.80 683.40 L 432.60 681.60 L 432.10 680.70 L 427.60 675.50 L 425.50 674.00 L 422.90 673.80 L 420.60 674.90 L 415.00 681.60 L 414.80 683.40 L 417.50 688.70 L 417.80 690.00 L 417.60 691.10 L 417.00 692.20 L 416.00 693.00 L 414.80 693.30 L 413.70 693.20 L 412.60 692.70 L 411.80 691.70 L 400.40 671.20 L 399.50 670.40 L 397.10 669.70 L 394.60 670.20 L 379.80 678.10 L 371.70 682.70 L 362.30 688.70 L 360.90 689.90 L 359.50 691.80 L 358.00 694.70 L 355.30 701.40 L 354.70 703.80 L 354.80 706.10 L 355.40 708.40 L 356.50 710.50 L 358.10 712.30 L 360.10 713.70 L 362.30 714.50 L 364.70 714.80 L 482.90 714.80 L 485.30 714.50 L 487.50 713.70 L 489.40 712.30 L 491.10 710.50 L 492.20 708.40 L 492.80 706.10 L 492.80 703.80 L 492.30 701.40 Z" fill="#fffffd" fill-rule="nonzero" node-id="129" stroke="none" target-height="126.29999" target-width="138.09998" target-x="354.7" target-y="588.5"></path><path d="M 411.80 691.80 L 400.40 671.20 L 399.50 670.40 L 397.10 669.70 L 394.60 670.20 L 392.30 672.80 L 392.00 674.60 L 393.00 676.20 L 397.00 679.70 L 398.10 681.00 L 398.70 683.00 L 398.60 684.20 L 394.20 696.60 L 394.10 697.90 L 394.50 698.90 L 396.80 700.90 L 422.00 714.80 L 425.00 714.80 L 411.80 691.80 Z" fill="#dcdcdd" fill-rule="nonzero" node-id="131" stroke="none" target-height="45.099976" target-width="33" target-x="392" target-y="669.7"></path><path d="M 435.60 691.80 L 446.90 671.20 L 447.90 670.40 L 450.30 669.70 L 452.80 670.20 L 455.10 672.80 L 455.30 674.60 L 454.40 676.20 L 450.30 679.70 L 449.20 681.00 L 448.60 683.00 L 448.80 684.20 L 453.20 696.60 L 453.20 697.90 L 452.90 698.90 L 450.50 700.90 L 425.40 714.80 L 422.40 714.80 L 435.60 691.80 Z" fill="#dcdcdd" fill-rule="nonzero" node-id="133" stroke="none" target-height="45.099976" target-width="32.899994" target-x="422.4" target-y="669.7"></path><path d="M 537.40 604.40 L 641.00 604.40 L 643.10 604.70 L 644.90 605.40 L 646.50 606.60 L 647.70 608.20 L 648.40 610.00 L 648.70 612.10 L 648.40 614.10 L 647.70 615.90 L 646.50 617.50 L 644.90 618.70 L 643.10 619.50 L 641.00 619.70 L 537.40 619.70 L 535.40 619.50 L 533.50 618.70 L 532.00 617.50 L 530.80 615.90 L 530.00 614.10 L 529.70 612.10 L 530.00 610.00 L 530.80 608.20 L 532.00 606.60 L 533.50 605.40 L 535.40 604.70 L 537.40 604.40 Z" fill="#fffffd" fill-rule="nonzero" node-id="135" stroke="none" target-height="15.299988" target-width="119" target-x="529.7" target-y="604.4"></path><path d="M 537.40 651.90 L 641.00 651.90 L 643.10 652.20 L 644.90 653.00 L 646.50 654.20 L 647.70 655.70 L 648.40 657.50 L 648.70 659.60 L 648.40 661.60 L 647.70 663.50 L 646.50 665.00 L 644.90 666.20 L 643.10 667.00 L 641.00 667.30 L 537.40 667.30 L 535.40 667.00 L 533.50 666.20 L 532.00 665.00 L 530.80 663.50 L 530.00 661.60 L 529.70 659.60 L 530.00 657.50 L 530.80 655.70 L 532.00 654.20 L 533.50 653.00 L 535.40 652.20 L 537.40 651.90 Z" fill="#fffffd" fill-rule="nonzero" node-id="137" stroke="none" target-height="15.399963" target-width="119" target-x="529.7" target-y="651.9"></path><path d="M 537.40 699.40 L 641.00 699.40 L 643.10 699.70 L 644.90 700.50 L 646.50 701.70 L 647.70 703.20 L 648.40 705.00 L 648.70 707.10 L 648.40 709.20 L 647.70 711.00 L 646.50 712.50 L 644.90 713.70 L 643.10 714.50 L 641.00 714.80 L 537.40 714.80 L 535.40 714.50 L 533.50 713.70 L 532.00 712.50 L 530.80 711.00 L 530.00 709.20 L 529.70 707.10 L 530.00 705.00 L 530.80 703.20 L 532.00 701.70 L 533.50 700.50 L 535.40 699.70 L 537.40 699.40 Z" fill="#fffffd" fill-rule="nonzero" node-id="139" stroke="none" target-height="15.399963" target-width="119" target-x="529.7" target-y="699.4"></path><path d="M 706.90 765.70 L 685.00 764.90 L 672.80 763.90 L 657.80 762.10 L 642.10 759.80 L 625.60 756.90 L 609.20 753.50 L 592.20 749.60 L 574.70 745.10 L 557.30 740.20 L 539.50 734.70 L 521.40 728.80 L 503.40 722.40 L 467.00 708.30 L 447.10 699.80 L 427.90 691.20 L 409.60 682.40 L 391.40 673.10 L 374.30 663.90 L 358.10 654.60 L 342.20 644.90 L 327.50 635.40 L 313.90 626.00 L 294.50 611.30 L 278.20 597.30 L 270.50 590.00 L 263.60 582.90 L 257.60 576.20 L 252.40 569.70 L 247.40 562.70 L 243.40 556.10 L 240.20 549.80 L 237.80 543.90 L 236.20 538.70 L 235.30 533.80 L 235.00 529.20 L 235.20 524.90 L 235.90 520.80 L 237.10 516.90 L 238.90 513.20 L 241.00 509.80 L 243.70 506.60 L 246.80 503.60 L 250.40 500.80 L 254.60 498.20 L 259.50 495.70 L 265.20 493.50 L 271.60 491.40 L 278.80 489.70 L 286.80 488.20 L 295.70 487.10 L 306.40 486.30 L 318.20 486.10 L 331.10 486.40 L 345.30 487.30 L 359.00 488.60 L 373.60 490.50 L 389.20 493.00 L 405.80 496.20 L 421.90 499.70 L 438.80 503.80 L 456.40 508.50 L 474.90 513.90 L 475.70 514.40 L 476.20 515.20 L 476.20 516.20 L 475.60 517.00 L 474.80 517.50 L 473.80 517.40 L 454.70 511.90 L 436.20 507.00 L 418.20 502.70 L 400.10 498.90 L 382.90 495.80 L 366.60 493.40 L 354.20 491.90 L 331.50 490.10 L 321.20 489.80 L 310.00 489.90 L 299.90 490.40 L 290.90 491.30 L 282.80 492.50 L 275.60 494.00 L 269.30 495.80 L 263.30 498.00 L 258.20 500.30 L 253.70 502.90 L 250.00 505.60 L 246.80 508.60 L 244.20 511.60 L 242.10 514.90 L 240.60 518.20 L 239.50 521.70 L 238.80 525.40 L 238.70 529.30 L 239.00 533.40 L 239.80 537.90 L 241.30 542.70 L 243.50 548.20 L 246.50 554.00 L 250.40 560.30 L 255.20 567.10 L 260.20 573.30 L 272.60 586.70 L 287.80 600.70 L 305.30 614.90 L 315.30 622.30 L 329.20 632.00 L 344.20 641.80 L 360.30 651.60 L 376.50 660.90 L 393.70 670.20 L 411.70 679.30 L 430.00 688.10 L 448.90 696.60 L 468.50 704.90 L 486.70 712.20 L 522.60 725.30 L 540.60 731.20 L 558.30 736.60 L 575.60 741.50 L 593.10 746.00 L 609.90 749.90 L 626.20 753.30 L 642.60 756.20 L 658.30 758.50 L 673.20 760.20 L 688.00 761.40 L 701.50 761.90 L 713.80 761.90 L 724.80 761.30 L 734.10 760.30 L 742.40 759.00 L 749.80 757.40 L 756.30 755.50 L 762.00 753.30 L 767.00 751.00 L 771.30 748.50 L 774.90 745.80 L 777.90 743.00 L 780.50 740.00 L 782.50 736.80 L 784.10 733.30 L 785.20 729.60 L 785.80 725.60 L 785.80 721.40 L 785.30 716.90 L 784.20 712.00 L 782.30 706.60 L 779.70 700.90 L 776.30 694.80 L 771.90 688.10 L 766.50 681.00 L 761.10 674.60 L 754.90 667.90 L 747.70 660.90 L 739.60 653.50 L 730.50 645.70 L 729.90 644.50 L 730.30 643.20 L 731.50 642.50 L 732.80 642.90 L 742.40 651.10 L 750.80 658.80 L 758.20 666.10 L 764.70 673.10 L 770.20 679.70 L 774.90 685.90 L 778.80 691.80 L 782.10 697.30 L 784.60 702.50 L 786.60 707.40 L 788.10 712.00 L 789.10 717.10 L 789.60 721.90 L 789.40 726.40 L 788.70 730.60 L 787.50 734.70 L 785.60 738.60 L 783.50 741.90 L 780.90 745.10 L 777.90 748.10 L 774.30 750.90 L 770.10 753.50 L 764.80 756.20 L 758.60 758.60 L 751.60 760.80 L 743.50 762.60 L 735.70 763.90 L 727.00 764.80 L 717.40 765.40 L 706.90 765.70 Z" fill="#141619" fill-rule="nonzero" node-id="141" stroke="none" target-height="279.6" target-width="554.6" target-x="235" target-y="486.1"></path><g node-id="215"><path d="M 787.20 522.70 L 855.40 488.10 L 857.70 487.20 L 859.90 486.70 L 864.50 487.00 L 868.70 488.80 L 870.60 490.20 L 872.10 491.90 L 873.40 494.00 L 876.30 499.60 L 877.20 501.90 L 877.60 504.20 L 877.40 508.80 L 875.60 512.90 L 874.20 514.80 L 872.40 516.30 L 870.40 517.60 L 802.20 552.20 L 799.40 553.30 L 796.50 553.90 L 793.70 554.00 L 790.90 553.60 L 788.20 552.70 L 785.70 551.40 L 783.50 549.70 L 781.50 547.50 L 779.90 545.00 L 778.80 542.10 L 778.20 539.30 L 778.20 536.50 L 778.60 533.70 L 779.40 531.00 L 780.80 528.50 L 782.50 526.20 L 784.60 524.30 L 787.20 522.70 Z" fill="#ffffff" fill-rule="nonzero" group-id="1" node-id="145" stroke="none" target-height="67.29999" target-width="99.39996" target-x="778.2" target-y="486.7"></path></g><path d="M 794.70 555.90 L 791.90 555.70 L 789.20 555.10 L 786.70 554.10 L 784.40 552.80 L 780.40 549.10 L 778.90 546.90 L 777.70 544.50 L 776.80 541.80 L 776.40 539.00 L 776.30 536.30 L 776.70 533.60 L 778.60 528.60 L 780.10 526.40 L 781.90 524.30 L 783.90 522.60 L 786.40 521.10 L 854.60 486.50 L 857.20 485.50 L 859.80 485.00 L 862.40 484.90 L 865.00 485.30 L 867.40 486.10 L 869.70 487.30 L 871.80 488.90 L 873.60 490.90 L 877.90 498.80 L 878.90 501.40 L 879.50 504.00 L 879.50 506.60 L 879.10 509.20 L 878.30 511.70 L 877.10 514.00 L 875.50 516.10 L 873.60 517.80 L 871.20 519.30 L 803.00 553.90 L 800.30 555.00 L 797.60 555.70 L 794.70 555.90 Z M 861.40 488.50 L 858.70 488.90 L 856.20 489.80 L 788.00 524.40 L 785.70 525.80 L 783.80 527.40 L 782.20 529.40 L 780.90 531.70 L 780.10 534.10 L 779.70 536.80 L 779.80 539.40 L 780.30 541.90 L 781.30 544.30 L 782.60 546.50 L 784.30 548.40 L 786.40 550.00 L 788.80 551.30 L 791.20 552.00 L 793.80 552.40 L 796.40 552.20 L 798.90 551.70 L 801.30 550.70 L 869.50 516.10 L 872.80 513.60 L 874.90 510.20 L 875.80 506.40 L 875.40 502.40 L 874.60 500.50 L 871.80 494.90 L 870.50 493.00 L 869.00 491.30 L 867.10 490.00 L 865.00 489.10 L 861.40 488.50 Z" fill="#141619" fill-rule="nonzero" node-id="148" stroke="none" target-height="71.00003" target-width="103.20001" target-x="776.3" target-y="484.9"></path><g node-id="216"><path d="M 796.20 552.50 L 867.60 530.30 L 870.00 529.80 L 872.40 529.70 L 876.80 530.80 L 880.70 533.20 L 882.20 534.90 L 883.50 536.90 L 884.40 539.20 L 887.30 548.30 L 887.80 550.70 L 887.90 553.00 L 887.50 555.30 L 886.80 557.50 L 884.40 561.40 L 882.70 562.90 L 880.70 564.20 L 878.40 565.10 L 807.00 587.30 L 803.70 588.00 L 800.60 588.10 L 797.50 587.70 L 794.50 586.70 L 791.80 585.30 L 789.30 583.40 L 787.20 581.10 L 785.50 578.40 L 784.20 575.30 L 783.50 572.10 L 783.40 568.90 L 783.80 565.80 L 784.80 562.80 L 786.20 560.10 L 788.10 557.60 L 790.40 555.50 L 793.10 553.80 L 796.20 552.50 Z" fill="#ffffff" fill-rule="nonzero" group-id="2" node-id="152" stroke="none" target-height="58.399963" target-width="104.5" target-x="783.4" target-y="529.7"></path></g><path d="M 801.60 590.00 L 798.30 589.80 L 795.20 589.10 L 792.20 587.90 L 789.50 586.30 L 787.20 584.30 L 785.10 581.90 L 783.40 579.20 L 782.20 576.30 L 781.40 573.00 L 781.20 569.70 L 781.50 566.50 L 782.30 563.50 L 783.60 560.60 L 785.20 558.00 L 787.30 555.60 L 789.70 553.60 L 792.50 552.00 L 795.60 550.80 L 867.00 528.70 L 869.70 528.10 L 872.40 528.00 L 875.00 528.40 L 877.50 529.20 L 879.70 530.40 L 881.80 531.90 L 883.60 533.90 L 885.00 536.10 L 886.10 538.70 L 888.90 547.80 L 889.50 550.50 L 889.60 553.20 L 889.20 555.80 L 888.40 558.30 L 887.20 560.50 L 885.70 562.60 L 883.70 564.40 L 881.50 565.80 L 878.90 566.90 L 807.50 589.10 L 804.60 589.80 L 801.60 590.00 Z M 871.60 531.60 L 868.20 532.10 L 796.70 554.30 L 794.00 555.50 L 791.60 557.00 L 789.60 558.90 L 787.90 561.20 L 786.60 563.60 L 785.80 566.30 L 785.40 569.00 L 785.50 571.80 L 786.10 574.80 L 787.30 577.50 L 788.80 579.90 L 790.70 581.90 L 792.90 583.70 L 795.30 584.90 L 798.00 585.80 L 800.70 586.30 L 803.50 586.20 L 806.50 585.60 L 877.90 563.40 L 881.50 561.50 L 884.20 558.60 L 885.70 554.90 L 885.90 551.00 L 882.70 539.70 L 881.60 537.40 L 880.20 535.50 L 878.40 533.90 L 876.40 532.60 L 874.10 531.90 L 871.60 531.60 Z" fill="#141619" fill-rule="nonzero" node-id="155" stroke="none" target-height="62" target-width="108.39996" target-x="781.2" target-y="528"></path><g node-id="217"><path d="M 802.30 585.00 L 875.50 588.70 L 878.20 589.00 L 880.70 589.90 L 883.00 591.10 L 885.00 592.70 L 886.70 594.60 L 888.10 596.80 L 889.10 599.20 L 889.70 601.70 L 889.80 604.50 L 889.10 613.50 L 888.30 616.00 L 887.10 618.30 L 885.50 620.30 L 883.60 622.00 L 881.40 623.40 L 879.00 624.40 L 876.40 625.00 L 873.70 625.10 L 800.50 621.40 L 797.20 621.00 L 794.20 620.00 L 791.40 618.50 L 789.00 616.60 L 786.90 614.30 L 785.20 611.60 L 784.00 608.70 L 783.40 605.60 L 783.20 602.30 L 783.70 599.00 L 784.70 596.00 L 786.20 593.20 L 788.10 590.80 L 790.40 588.70 L 793.00 587.00 L 795.90 585.80 L 799.00 585.10 L 802.30 585.00 Z" fill="#ffffff" fill-rule="nonzero" group-id="3" node-id="159" stroke="none" target-height="40.099976" target-width="106.599976" target-x="783.2" target-y="585"></path></g><path d="M 876.50 622.00 L 802.70 618.70 L 799.00 618.20 L 795.70 617.10 L 792.70 615.50 L 790.00 613.40 L 787.70 610.90 L 785.90 608.00 L 784.50 604.90 L 783.80 601.50 L 783.60 597.80 L 784.10 594.20 L 785.10 590.90 L 786.80 587.80 L 788.90 585.10 L 791.40 582.80 L 794.30 581.00 L 797.40 579.60 L 800.80 578.90 L 804.50 578.70 L 877.60 582.00 L 880.60 582.40 L 883.40 583.30 L 886.00 584.70 L 888.20 586.50 L 890.20 588.60 L 891.70 591.00 L 892.90 593.70 L 893.50 596.60 L 893.70 599.70 L 893.00 608.90 L 892.10 611.60 L 890.80 614.10 L 889.10 616.30 L 887.10 618.20 L 884.80 619.80 L 882.20 621.00 L 879.50 621.70 L 876.50 622.00 Z M 875.90 618.30 L 880.60 617.70 L 884.60 615.60 L 887.60 612.30 L 888.70 610.30 L 889.40 608.10 L 889.80 605.70 L 889.90 597.00 L 889.40 594.80 L 888.50 592.70 L 885.80 589.10 L 884.00 587.70 L 882.00 586.60 L 879.80 585.90 L 877.40 585.60 L 804.30 582.30 L 801.40 582.60 L 798.80 583.30 L 796.30 584.40 L 794.00 586.00 L 792.10 587.80 L 790.40 590.00 L 789.20 592.40 L 788.40 595.10 L 788.00 597.90 L 788.10 600.80 L 788.70 603.50 L 789.70 606.10 L 791.20 608.40 L 792.90 610.40 L 795.00 612.20 L 797.40 613.50 L 800.00 614.50 L 802.80 615.00 Z" fill="#141619" fill-rule="nonzero" node-id="162" stroke="none" target-height="43.299988" target-width="110.10004" target-x="783.6" target-y="578.7"></path><g node-id="218"><path d="M 795.10 615.80 L 853.20 632.30 L 855.50 633.20 L 857.50 634.40 L 859.30 635.90 L 861.80 639.70 L 862.60 641.90 L 863.00 644.10 L 863.00 646.50 L 862.50 648.90 L 859.10 660.10 L 857.90 662.10 L 856.40 663.80 L 852.60 666.30 L 848.20 667.50 L 845.80 667.50 L 843.40 667.00 L 785.30 650.60 L 780.90 648.70 L 777.20 645.80 L 774.40 642.00 L 773.40 639.80 L 772.20 635.30 L 772.30 630.60 L 772.80 628.30 L 774.00 625.20 L 775.60 622.50 L 777.60 620.20 L 780.00 618.20 L 782.70 616.70 L 785.60 615.70 L 788.70 615.20 L 791.80 615.20 L 795.10 615.80 Z" fill="#ffffff" fill-rule="nonzero" group-id="4" node-id="166" stroke="none" target-height="52.299988" target-width="90.79999" target-x="772.2" target-y="615.2"></path></g><path d="M 847.00 669.40 L 842.90 668.80 L 784.70 652.30 L 781.30 651.00 L 778.40 649.20 L 775.80 647.00 L 773.70 644.30 L 772.00 641.40 L 770.90 638.20 L 770.30 634.80 L 770.30 631.40 L 771.00 627.80 L 772.30 624.40 L 774.10 621.40 L 776.40 618.90 L 779.00 616.70 L 781.90 615.10 L 785.20 614.00 L 788.50 613.40 L 792.00 613.40 L 795.60 614.10 L 853.70 630.60 L 856.30 631.60 L 858.60 632.90 L 860.50 634.70 L 862.20 636.70 L 863.40 639.00 L 864.30 641.40 L 864.70 644.00 L 864.70 646.70 L 864.20 649.40 L 860.90 660.40 L 858.60 664.10 L 855.30 666.90 L 851.40 668.70 L 847.00 669.40 Z M 790.20 617.00 L 787.30 617.30 L 784.60 618.00 L 782.10 619.10 L 779.80 620.70 L 777.80 622.70 L 776.20 625.00 L 774.90 627.60 L 774.20 630.30 L 773.90 633.00 L 774.10 635.80 L 774.80 638.50 L 776.00 641.10 L 777.80 643.70 L 780.10 645.90 L 782.70 647.70 L 785.70 648.80 L 845.90 665.70 L 849.90 665.40 L 853.50 663.70 L 856.40 661.00 L 858.20 657.30 L 860.70 648.40 L 861.10 644.30 L 860.10 640.50 L 857.90 637.20 L 856.40 635.90 L 852.70 634.10 L 794.60 617.60 L 790.20 617.00 Z" fill="#141619" fill-rule="nonzero" node-id="169" stroke="none" target-height="56" target-width="94.400024" target-x="770.3" target-y="613.4"></path><g node-id="219"><path d="M 218.40 552.30 L 150.20 517.70 L 148.10 516.40 L 146.40 514.80 L 145.00 513.00 L 143.20 508.80 L 142.90 504.20 L 143.40 501.90 L 144.30 499.70 L 147.10 494.10 L 148.50 492.00 L 150.00 490.30 L 153.90 487.80 L 158.30 486.70 L 160.60 486.80 L 162.90 487.30 L 165.20 488.20 L 233.40 522.80 L 235.90 524.40 L 238.10 526.30 L 239.80 528.60 L 241.10 531.10 L 242.00 533.70 L 242.40 536.50 L 242.30 539.40 L 241.80 542.20 L 240.60 545.00 L 239.00 547.60 L 237.10 549.70 L 234.80 551.40 L 232.30 552.80 L 229.70 553.60 L 226.90 554.10 L 224.00 554.00 L 221.20 553.40 L 218.40 552.30 Z" fill="#ffffff" fill-rule="nonzero" group-id="5" node-id="173" stroke="none" target-height="67.39996" target-width="99.5" target-x="142.9" target-y="486.7"></path></g><path d="M 225.80 555.90 L 222.90 555.70 L 220.20 555.00 L 217.50 553.90 L 149.40 519.30 L 147.00 517.80 L 145.00 516.00 L 143.40 514.00 L 142.20 511.70 L 141.40 509.20 L 141.00 506.60 L 141.10 504.00 L 141.60 501.40 L 142.60 498.80 L 145.50 493.20 L 147.00 490.90 L 148.70 488.90 L 150.80 487.30 L 153.10 486.10 L 155.60 485.30 L 158.20 484.90 L 160.80 485.00 L 163.40 485.50 L 166.00 486.50 L 234.20 521.10 L 236.60 522.60 L 238.70 524.30 L 242.00 528.60 L 243.90 533.60 L 244.20 536.30 L 244.20 539.00 L 243.80 541.80 L 242.90 544.50 L 241.70 546.90 L 240.10 549.10 L 236.20 552.80 L 231.30 555.10 L 228.70 555.70 L 225.80 555.90 Z M 151.00 516.10 L 219.20 550.70 L 221.60 551.70 L 224.10 552.20 L 226.70 552.40 L 229.30 552.00 L 231.70 551.30 L 234.10 550.00 L 236.20 548.40 L 237.90 546.50 L 239.30 544.30 L 240.20 541.90 L 240.70 539.40 L 240.80 536.80 L 240.40 534.10 L 239.60 531.70 L 238.30 529.40 L 236.70 527.40 L 234.80 525.80 L 164.30 489.80 L 160.40 488.60 L 158.40 488.60 L 154.60 489.50 L 151.20 491.60 L 148.70 494.90 L 145.10 502.40 L 144.70 506.40 L 145.60 510.20 L 147.70 513.60 L 151.00 516.10 Z" fill="#141619" fill-rule="nonzero" node-id="176" stroke="none" target-height="71.00003" target-width="103.2" target-x="141" target-y="484.9"></path><g node-id="220"><path d="M 213.60 587.40 L 142.20 565.20 L 139.90 564.20 L 137.90 563.00 L 136.30 561.40 L 133.80 557.60 L 132.80 553.10 L 132.80 550.80 L 133.30 548.40 L 137.10 537.00 L 138.40 535.00 L 140.00 533.30 L 141.80 531.90 L 146.00 530.10 L 148.30 529.80 L 150.60 529.90 L 153.00 530.40 L 224.40 552.60 L 227.50 553.90 L 230.20 555.60 L 232.50 557.70 L 234.40 560.20 L 235.80 562.90 L 236.80 565.90 L 237.20 569.00 L 237.10 572.10 L 236.40 575.40 L 235.10 578.50 L 233.40 581.20 L 231.30 583.40 L 228.80 585.40 L 226.10 586.80 L 223.10 587.80 L 220.00 588.20 L 216.90 588.10 L 213.60 587.40 Z" fill="#ffffff" fill-rule="nonzero" group-id="6" node-id="180" stroke="none" target-height="58.400024" target-width="104.399994" target-x="132.8" target-y="529.8"></path></g><path d="M 219.00 590.00 L 216.00 589.80 L 213.10 589.10 L 141.60 566.90 L 139.10 565.80 L 136.80 564.40 L 134.90 562.60 L 133.30 560.50 L 132.20 558.20 L 131.30 555.80 L 131.00 553.20 L 131.10 550.50 L 131.60 547.80 L 134.50 538.70 L 135.60 536.10 L 137.00 533.90 L 138.80 531.90 L 140.90 530.40 L 143.10 529.20 L 145.60 528.40 L 148.20 528.00 L 150.80 528.10 L 153.60 528.70 L 225.00 550.90 L 228.10 552.10 L 230.80 553.70 L 233.20 555.70 L 235.30 558.10 L 236.90 560.70 L 238.20 563.50 L 238.90 566.60 L 239.20 569.70 L 239.00 573.00 L 238.20 576.30 L 237.00 579.20 L 235.40 581.80 L 233.30 584.20 L 231.00 586.20 L 228.30 587.80 L 225.40 589.00 L 222.30 589.80 L 219.00 590.00 Z M 142.70 563.40 L 214.20 585.60 L 217.10 586.20 L 219.90 586.30 L 222.60 585.80 L 225.30 584.90 L 227.70 583.70 L 229.90 581.90 L 231.80 579.90 L 233.30 577.50 L 234.50 574.80 L 235.10 571.80 L 235.20 569.00 L 234.80 566.30 L 234.00 563.60 L 232.70 561.20 L 231.00 558.90 L 229.00 557.00 L 226.60 555.50 L 223.90 554.30 L 152.50 532.10 L 148.40 531.60 L 144.50 532.50 L 141.20 534.60 L 139.80 536.10 L 137.90 539.70 L 134.70 551.00 L 134.90 554.90 L 136.40 558.60 L 139.10 561.50 L 142.70 563.40 Z" fill="#141619" fill-rule="nonzero" node-id="183" stroke="none" target-height="62" target-width="108.2" target-x="131" target-y="528"></path><g node-id="221"><path d="M 214.70 617.00 L 141.60 620.70 L 138.80 620.60 L 136.30 620.00 L 133.90 619.00 L 131.70 617.60 L 129.80 615.90 L 128.20 613.90 L 127.00 611.60 L 126.20 609.10 L 125.50 600.10 L 125.60 597.30 L 126.10 594.80 L 127.10 592.40 L 128.50 590.20 L 130.20 588.30 L 132.30 586.70 L 134.60 585.50 L 137.00 584.60 L 139.80 584.20 L 212.90 580.60 L 216.30 580.70 L 219.40 581.40 L 222.20 582.60 L 224.90 584.30 L 227.20 586.40 L 229.10 588.80 L 230.60 591.60 L 231.60 594.60 L 232.10 597.90 L 231.90 601.20 L 231.20 604.30 L 230.00 607.20 L 228.30 609.90 L 226.30 612.10 L 223.80 614.10 L 221.10 615.60 L 218.10 616.60 L 214.70 617.00 Z" fill="#ffffff" fill-rule="nonzero" group-id="7" node-id="187" stroke="none" target-height="40.100037" target-width="106.600006" target-x="125.5" target-y="580.6"></path></g><path d="M 144.00 622.00 L 141.00 621.70 L 138.30 621.00 L 135.70 619.80 L 133.40 618.20 L 131.40 616.30 L 129.70 614.00 L 128.40 611.50 L 127.50 608.80 L 126.80 599.60 L 127.00 596.50 L 127.60 593.60 L 128.80 591.00 L 130.40 588.50 L 132.30 586.40 L 134.60 584.60 L 137.10 583.30 L 139.90 582.40 L 143.00 581.90 L 216.10 578.70 L 219.70 578.80 L 223.10 579.60 L 226.30 580.90 L 229.20 582.80 L 231.70 585.10 L 233.80 587.80 L 235.40 590.80 L 236.50 594.10 L 237.00 597.80 L 236.80 601.40 L 236.00 604.80 L 234.70 608.00 L 232.80 610.90 L 230.60 613.40 L 227.80 615.50 L 224.80 617.10 L 221.50 618.10 L 217.90 618.70 L 144.80 622.00 Z M 217.00 582.30 L 143.20 585.60 L 140.80 585.90 L 138.60 586.60 L 136.60 587.70 L 133.30 590.70 L 131.20 594.80 L 130.70 597.00 L 130.80 605.70 L 131.20 608.10 L 131.90 610.30 L 132.90 612.30 L 134.30 614.10 L 137.90 616.80 L 140.00 617.70 L 142.20 618.20 L 144.70 618.30 L 217.70 615.00 L 220.60 614.60 L 223.30 613.70 L 225.70 612.40 L 227.90 610.80 L 229.80 608.80 L 231.30 606.50 L 232.40 603.90 L 233.10 601.20 L 233.30 598.30 L 232.90 595.30 L 232.20 592.70 L 230.90 590.20 L 229.30 587.90 L 227.40 586.00 L 225.10 584.40 L 222.60 583.30 L 219.90 582.50 L 217.00 582.20 Z" fill="#141619" fill-rule="nonzero" node-id="190" stroke="none" target-height="43.299988" target-width="110.2" target-x="126.8" target-y="578.7"></path><g node-id="222"><path d="M 235.30 650.60 L 177.20 667.00 L 174.80 667.50 L 172.50 667.50 L 170.20 667.10 L 166.00 665.20 L 162.70 662.10 L 161.50 660.10 L 160.60 657.80 L 157.70 646.50 L 157.60 644.10 L 158.00 641.90 L 159.90 637.70 L 163.10 634.40 L 165.10 633.20 L 167.40 632.30 L 225.50 615.80 L 228.70 615.20 L 231.90 615.20 L 234.90 615.70 L 237.90 616.70 L 240.50 618.20 L 242.90 620.20 L 245.00 622.50 L 246.60 625.20 L 247.80 628.30 L 248.50 632.90 L 247.90 637.60 L 247.20 639.80 L 244.90 644.00 L 243.40 645.80 L 239.70 648.70 L 235.30 650.60 Z" fill="#ffffff" fill-rule="nonzero" group-id="8" node-id="194" stroke="none" target-height="52.299988" target-width="90.899994" target-x="157.6" target-y="615.2"></path></g><path d="M 173.50 669.40 L 169.10 668.70 L 165.20 666.90 L 162.00 664.10 L 159.60 660.40 L 156.30 649.40 L 155.80 646.70 L 155.80 644.00 L 156.20 641.40 L 157.10 639.00 L 158.40 636.70 L 160.00 634.70 L 162.00 632.90 L 164.20 631.60 L 166.80 630.60 L 225.00 614.10 L 228.60 613.40 L 232.00 613.40 L 235.40 614.00 L 238.60 615.10 L 241.50 616.70 L 244.20 618.90 L 246.50 621.40 L 248.20 624.40 L 249.60 627.80 L 250.20 631.40 L 250.20 634.80 L 249.70 638.20 L 248.50 641.40 L 246.90 644.30 L 244.80 647.00 L 242.20 649.20 L 239.20 651.00 L 235.80 652.30 L 177.70 668.80 L 173.50 669.40 Z M 230.40 617.00 L 226.00 617.60 L 167.80 634.10 L 164.10 635.90 L 161.40 638.80 L 159.80 642.30 L 159.40 644.30 L 159.80 648.40 L 162.40 657.30 L 163.10 659.30 L 165.50 662.50 L 168.70 664.70 L 172.60 665.70 L 176.70 665.30 L 234.80 648.80 L 237.60 647.80 L 240.00 646.30 L 242.10 644.50 L 243.80 642.30 L 245.10 639.90 L 246.10 637.30 L 246.50 634.60 L 246.50 631.70 L 246.00 628.80 L 244.10 624.50 L 241.10 621.00 L 237.20 618.50 L 235.10 617.70 L 230.40 617.00 Z" fill="#141619" fill-rule="nonzero" node-id="197" stroke="none" target-height="56" target-width="94.399994" target-x="155.8" target-y="613.4"></path><path d="M 314.00 764.90 L 303.40 764.70 L 293.80 764.10 L 285.10 763.10 L 277.20 761.80 L 269.20 760.00 L 262.10 757.80 L 256.00 755.40 L 250.60 752.70 L 246.40 750.10 L 242.80 747.30 L 239.70 744.30 L 237.10 741.10 L 235.00 737.80 L 233.20 733.90 L 231.90 729.80 L 231.20 725.60 L 231.10 721.10 L 231.50 716.30 L 232.50 711.20 L 234.00 706.60 L 236.00 701.70 L 238.50 696.50 L 241.70 691.00 L 245.60 685.10 L 250.30 678.90 L 255.80 672.30 L 262.20 665.40 L 269.60 658.10 L 278.00 650.30 L 287.60 642.20 L 288.40 641.80 L 289.40 641.80 L 290.20 642.40 L 290.60 643.30 L 290.50 644.30 L 289.90 645.00 L 280.80 652.80 L 272.70 660.20 L 265.70 667.20 L 259.50 673.80 L 254.10 680.20 L 248.70 687.30 L 244.30 693.90 L 240.90 700.10 L 238.30 705.80 L 236.50 711.20 L 235.40 716.00 L 234.90 720.60 L 234.90 724.80 L 235.50 728.70 L 236.60 732.50 L 238.20 736.00 L 240.20 739.20 L 242.80 742.20 L 245.80 745.00 L 249.40 747.70 L 253.70 750.20 L 258.60 752.50 L 264.40 754.70 L 270.90 756.60 L 278.20 758.20 L 286.50 759.50 L 295.80 760.50 L 306.80 761.10 L 319.00 761.20 L 332.40 760.70 L 347.30 759.50 L 362.10 757.80 L 377.70 755.60 L 394.10 752.70 L 410.30 749.30 L 427.10 745.50 L 444.50 741.00 L 461.80 736.10 L 479.40 730.70 L 497.30 724.80 L 533.20 711.80 L 551.30 704.50 L 570.80 696.30 L 589.70 687.80 L 607.80 679.10 L 625.80 670.00 L 642.90 660.70 L 659.10 651.40 L 675.10 641.70 L 690.00 632.00 L 703.90 622.30 L 713.80 614.90 L 731.30 600.80 L 746.40 586.80 L 758.80 573.40 L 763.80 567.20 L 768.60 560.40 L 772.40 554.10 L 775.40 548.30 L 777.60 542.90 L 779.10 538.00 L 779.90 533.50 L 780.20 529.40 L 780.10 525.50 L 779.40 521.80 L 778.30 518.30 L 776.80 515.00 L 774.70 511.70 L 772.00 508.60 L 768.90 505.70 L 765.20 502.90 L 760.80 500.40 L 755.60 498.00 L 749.70 495.90 L 743.30 494.10 L 736.10 492.50 L 728.10 491.30 L 719.10 490.40 L 709.00 489.90 L 697.80 489.80 L 687.50 490.10 L 664.90 491.80 L 652.50 493.30 L 636.30 495.70 L 619.20 498.70 L 601.10 502.50 L 583.20 506.80 L 564.70 511.60 L 545.70 517.20 L 545.00 517.20 L 543.80 516.60 L 543.40 515.90 L 543.50 514.60 L 544.60 513.70 L 563.00 508.30 L 580.60 503.60 L 597.50 499.50 L 613.60 496.00 L 630.10 492.90 L 645.70 490.40 L 660.20 488.50 L 673.90 487.20 L 688.00 486.30 L 700.90 486.00 L 712.60 486.30 L 723.30 487.10 L 732.20 488.20 L 740.20 489.60 L 747.40 491.40 L 753.80 493.40 L 759.40 495.70 L 764.30 498.20 L 768.50 500.80 L 772.10 503.60 L 775.20 506.60 L 777.80 509.80 L 780.00 513.20 L 781.80 516.90 L 783.00 520.80 L 783.70 524.90 L 783.90 529.20 L 783.60 533.80 L 782.60 538.70 L 781.10 544.00 L 778.70 549.90 L 775.50 556.10 L 771.50 562.70 L 766.50 569.70 L 761.30 576.20 L 755.30 583.00 L 748.50 590.00 L 740.70 597.30 L 724.50 611.20 L 705.20 625.90 L 691.70 635.20 L 677.00 644.80 L 661.20 654.40 L 645.00 663.70 L 628.00 672.90 L 609.90 682.10 L 591.60 690.80 L 572.60 699.40 L 552.70 707.90 L 516.40 722.00 L 498.50 728.30 L 480.40 734.20 L 462.70 739.60 L 445.40 744.50 L 427.90 749.00 L 411.00 752.90 L 394.70 756.30 L 378.20 759.20 L 362.60 761.40 L 347.60 763.20 L 335.60 764.10 L 314.00 764.90 Z" fill="#141619" fill-rule="nonzero" node-id="199" stroke="none" target-height="278.90002" target-width="552.80005" target-x="231.1" target-y="486"></path><g node-id="223"><path d="M 244.00 543.00 L 281.30 502.40 L 283.10 500.70 L 285.10 499.50 L 287.20 498.60 L 289.50 498.10 L 294.00 498.30 L 296.20 499.00 L 298.30 500.10 L 300.30 501.60 L 314.80 514.90 L 316.50 516.70 L 317.70 518.70 L 319.00 523.10 L 318.90 527.70 L 318.20 529.90 L 317.10 531.90 L 315.60 533.90 L 278.30 574.50 L 273.60 578.40 L 268.20 581.00 L 262.10 582.10 L 259.00 582.00 L 253.10 580.70 L 247.80 577.90 L 245.40 575.90 L 243.20 573.60 L 241.40 571.10 L 238.90 565.60 L 238.20 562.70 L 237.90 556.80 L 239.20 550.90 L 240.40 548.10 L 242.00 545.50 L 244.00 543.00 Z" fill="#ffffff" fill-rule="nonzero" group-id="9" node-id="203" stroke="none" target-height="83.99997" target-width="81.100006" target-x="237.9" target-y="498.1"></path></g><path d="M 261.10 583.80 L 257.80 583.60 L 254.70 583.00 L 251.60 582.00 L 248.80 580.60 L 246.10 578.80 L 243.70 576.80 L 241.50 574.40 L 239.70 571.80 L 238.20 568.80 L 237.00 565.70 L 236.30 562.60 L 236.00 559.40 L 236.20 556.20 L 236.70 553.00 L 237.60 550.00 L 238.90 547.10 L 240.60 544.30 L 242.70 541.70 L 280.00 501.10 L 282.10 499.20 L 284.30 497.80 L 286.70 496.80 L 289.30 496.30 L 291.90 496.20 L 294.50 496.50 L 297.00 497.30 L 299.30 498.50 L 301.60 500.20 L 316.10 513.50 L 318.00 515.60 L 319.40 517.80 L 320.40 520.30 L 320.90 522.80 L 321.00 525.40 L 320.70 528.00 L 319.90 530.50 L 318.70 532.80 L 317.00 535.10 L 279.70 575.70 L 277.30 578.00 L 274.70 579.90 L 271.80 581.50 L 268.70 582.70 L 265.60 583.50 L 262.30 583.80 Z M 291.20 499.80 L 288.80 500.10 L 286.50 500.80 L 284.50 502.00 L 282.70 503.60 L 245.40 544.20 L 243.10 547.40 L 241.60 550.60 L 240.60 554.10 L 240.30 557.70 L 240.50 561.20 L 241.30 564.70 L 242.70 568.10 L 244.70 571.10 L 247.20 573.90 L 250.30 576.30 L 253.50 578.00 L 256.90 579.00 L 260.50 579.60 L 264.00 579.50 L 267.60 578.80 L 270.90 577.50 L 274.10 575.70 L 277.00 573.20 L 314.30 532.60 L 316.50 529.10 L 317.30 525.20 L 316.80 521.30 L 315.00 517.80 L 313.60 516.20 L 297.30 501.50 L 293.30 500.00 L 291.20 499.80 Z" fill="#141619" fill-rule="nonzero" node-id="206" stroke="none" target-height="87.599976" target-width="85" target-x="236" target-y="496.2"></path><g node-id="224"><path d="M 742.10 574.50 L 704.80 533.80 L 703.30 531.90 L 702.30 529.80 L 701.60 527.60 L 701.30 525.30 L 701.90 520.80 L 702.70 518.70 L 704.00 516.70 L 705.60 514.90 L 720.20 501.50 L 722.10 500.00 L 724.20 499.00 L 726.40 498.30 L 731.00 498.10 L 735.40 499.40 L 737.30 500.70 L 739.20 502.30 L 778.40 545.40 L 781.20 550.80 L 782.50 556.70 L 782.60 559.70 L 782.20 562.80 L 781.50 565.80 L 778.90 571.30 L 775.00 575.90 L 772.50 577.90 L 769.90 579.50 L 764.20 581.50 L 761.30 582.00 L 755.30 581.70 L 749.60 579.90 L 746.90 578.50 L 744.40 576.70 L 742.10 574.50 Z" fill="#ffffff" fill-rule="nonzero" group-id="10" node-id="210" stroke="none" target-height="83.899994" target-width="81.29999" target-x="701.3" target-y="498.1"></path></g><path d="M 759.40 583.80 L 755.00 583.50 L 751.80 582.70 L 748.80 581.50 L 745.90 580.00 L 743.20 578.00 L 740.80 575.70 L 703.60 535.10 L 701.90 532.90 L 700.70 530.50 L 699.90 528.00 L 699.60 525.40 L 699.70 522.80 L 700.20 520.30 L 701.20 517.80 L 702.60 515.60 L 704.50 513.50 L 719.00 500.20 L 721.20 498.50 L 723.60 497.30 L 726.10 496.50 L 728.70 496.20 L 731.30 496.30 L 733.80 496.80 L 736.20 497.80 L 738.50 499.20 L 740.60 501.10 L 777.90 541.70 L 779.90 544.30 L 781.60 547.10 L 782.90 550.00 L 784.30 556.20 L 784.50 559.40 L 784.20 562.60 L 783.50 565.70 L 782.40 568.80 L 780.80 571.80 L 779.00 574.40 L 776.80 576.80 L 771.70 580.60 L 768.90 582.00 L 765.80 583.00 L 762.70 583.60 L 759.40 583.80 Z M 729.30 499.80 L 727.20 500.00 L 723.20 501.60 L 707.00 516.20 L 705.60 517.80 L 703.80 521.30 L 703.30 525.20 L 704.10 529.10 L 706.30 532.60 L 743.60 573.20 L 746.50 575.70 L 749.70 577.50 L 753.00 578.80 L 756.60 579.50 L 760.10 579.60 L 763.70 579.10 L 767.10 578.00 L 770.30 576.30 L 773.40 574.00 L 775.90 571.10 L 777.90 568.10 L 779.30 564.70 L 780.10 561.20 L 780.30 557.70 L 780.00 554.10 L 779.00 550.70 L 777.40 547.40 L 775.20 544.20 L 737.90 503.60 L 736.10 502.00 L 734.00 500.80 L 731.80 500.00 L 729.30 499.80 Z" fill="#141619" fill-rule="nonzero" node-id="213" stroke="none" target-height="87.599976" target-width="84.900024" target-x="699.6" target-y="496.2"></path></svg>